<?xml version="1.0" standalone="no"?>
<!DOCTYPE svg PUBLIC "-//W3C//DTD SVG 20010904//EN"
 "http://www.w3.org/TR/2001/REC-SVG-20010904/DTD/svg10.dtd">
<svg version="1.0" xmlns="http://www.w3.org/2000/svg"
 width="1600.000000pt" height="1600.000000pt" viewBox="0 0 1600.000000 1600.000000"
 preserveAspectRatio="xMidYMid meet">

<g transform="translate(0.000000,1600.000000) scale(0.100000,-0.100000)"
fill="#000000" stroke="none">
<path d="M7781 14087 c-13 -6 -33 -25 -45 -40 -45 -61 -11 -204 58 -247 87
-53 176 13 95 71 -28 20 -59 72 -59 99 0 18 64 11 105 -12 148 -80 143 -78
236 -78 98 0 133 9 149 40 9 17 8 26 -5 46 -14 23 -21 24 -107 24 -90 0 -93 1
-160 41 -38 23 -85 47 -106 55 -47 17 -130 17 -161 1z"/>
<path d="M8411 13994 c-27 -35 -26 -59 4 -89 49 -49 135 -22 135 43 0 67 -98
99 -139 46z"/>
<path d="M8036 13690 c-64 -20 -118 -94 -141 -194 -18 -77 -9 -128 26 -147 11
-5 118 -13 239 -16 266 -7 270 -6 270 84 0 105 -61 185 -188 245 -67 32 -156
44 -206 28z m152 -149 c21 -11 50 -33 66 -50 l30 -31 -110 0 c-60 0 -126 -4
-147 -9 -32 -8 -38 -7 -33 6 3 8 6 19 6 24 0 5 17 27 37 50 34 38 40 40 76 35
21 -4 55 -15 75 -25z"/>
<path d="M8300 13240 c-24 -12 -60 -33 -78 -47 l-33 -25 -22 20 c-61 57 -174
70 -227 26 -39 -34 -70 -93 -70 -138 0 -61 23 -137 44 -151 12 -7 66 -16 121
-20 55 -3 158 -13 230 -21 124 -14 131 -13 155 4 49 37 34 94 -28 112 -20 5
-54 10 -74 10 -37 0 -68 20 -68 45 0 7 28 26 63 43 78 37 107 65 107 101 0 54
-52 71 -120 41z m-204 -154 c19 -19 34 -38 34 -44 0 -9 -77 -22 -137 -22 -30
0 -31 1 -23 29 16 55 29 71 61 71 22 0 41 -10 65 -34z"/>
<path d="M8215 12824 c-90 -6 -199 -26 -251 -45 -63 -24 -95 -57 -96 -98 -2
-55 21 -80 107 -121 101 -49 207 -78 311 -86 77 -6 82 -6 94 15 16 31 -5 53
-73 74 l-54 17 1 55 1 55 52 0 c64 0 102 16 109 47 17 65 -55 96 -201 87z
m-62 -171 c4 -20 5 -38 4 -39 -5 -5 -128 49 -123 53 7 7 65 21 92 22 17 1 23
-6 27 -36z"/>
<path d="M1450 12497 c-39 -20 -56 -58 -41 -94 12 -29 46 -53 76 -53 8 0 26
10 40 23 65 55 1 162 -75 124z"/>
<path d="M7912 12474 c-24 -16 -29 -53 -12 -85 13 -24 80 -58 185 -94 44 -16
83 -31 88 -35 4 -3 -26 -16 -65 -29 -139 -44 -174 -74 -141 -120 20 -30 49
-27 239 20 192 49 228 67 232 123 2 25 -2 44 -13 57 -10 10 -88 41 -174 70
-86 28 -185 65 -220 80 -73 33 -88 35 -119 13z"/>
<path d="M1244 12269 l-64 -62 -83 -7 c-95 -9 -131 -24 -174 -74 -62 -70 -69
-165 -16 -218 59 -59 194 -61 209 -2 8 33 1 39 -61 53 -60 13 -71 26 -61 66 9
34 54 55 118 55 106 0 181 41 245 134 37 53 41 77 17 100 -30 31 -62 19 -130
-45z"/>
<path d="M14545 12264 c-96 -50 -137 -163 -80 -219 39 -40 58 -29 68 40 10 62
72 106 105 73 8 -8 12 -48 12 -115 0 -115 7 -137 68 -211 42 -53 71 -68 100
-53 44 24 39 56 -24 138 -34 44 -34 45 -34 151 0 122 -11 149 -77 189 -44 27
-95 29 -138 7z"/>
<path d="M10582 12164 c-18 -10 -45 -33 -60 -52 -24 -31 -27 -45 -27 -108 0
-79 18 -114 60 -114 35 0 43 17 38 83 -5 54 -3 64 16 81 20 18 22 18 41 1 18
-16 30 -49 60 -163 14 -54 57 -103 125 -142 61 -35 85 -37 110 -10 27 30 6 70
-56 106 -59 34 -64 42 -90 136 -11 39 -28 87 -39 108 -37 73 -115 106 -178 74z"/>
<path d="M1707 12081 c-41 -38 -43 -39 -70 -24 -16 8 -59 17 -97 20 -135 11
-211 -45 -218 -162 -5 -76 12 -114 68 -151 22 -15 40 -33 40 -40 0 -22 39 -27
70 -7 39 25 308 261 325 287 23 32 19 82 -7 100 -36 25 -65 19 -111 -23z
m-157 -150 c0 -6 -5 -13 -11 -16 -6 -4 -23 -25 -39 -46 l-28 -40 -16 23 c-19
26 -20 42 -6 69 8 14 21 19 55 19 25 0 45 -4 45 -9z"/>
<path d="M8340 12079 c-14 -5 -43 -28 -65 -50 l-41 -39 -39 20 c-44 22 -142
27 -178 9 -98 -50 -134 -169 -76 -250 22 -32 81 -48 297 -80 134 -20 136 -20
161 -1 60 45 27 122 -52 122 -12 0 -28 4 -35 9 -19 12 21 94 62 126 58 45 66
55 66 78 0 49 -50 76 -100 56z m-188 -199 c32 -40 23 -47 -63 -54 -44 -4 -83
-5 -86 -3 -9 9 8 47 30 68 28 27 94 20 119 -11z"/>
<path d="M1893 11958 c-46 -32 -260 -275 -284 -321 -27 -52 -22 -81 14 -85 37
-4 97 41 242 185 125 122 154 167 139 210 -13 38 -65 43 -111 11z"/>
<path d="M14341 11804 c-98 -74 -124 -124 -97 -188 19 -45 162 -242 190 -262
39 -27 86 -18 125 24 58 61 114 148 114 178 0 35 -37 67 -67 59 -12 -4 -44
-31 -71 -61 l-51 -54 -22 29 -22 30 26 18 c30 19 84 89 84 109 0 20 -29 44
-53 44 -12 0 -41 -21 -69 -50 -43 -45 -49 -48 -57 -31 -9 15 0 29 44 79 55 60
66 87 43 110 -22 22 -56 12 -117 -34z"/>
<path d="M5651 11814 c-25 -32 -26 -52 -5 -82 32 -47 127 -16 127 41 0 65 -82
92 -122 41z"/>
<path d="M1998 11768 c-200 -172 -312 -327 -265 -367 22 -18 56 0 136 72 l71
63 61 -59 60 -59 -34 -52 c-67 -101 -82 -147 -55 -174 25 -25 48 -9 133 89 48
55 123 137 166 182 84 87 96 118 61 150 -35 32 -65 21 -140 -48 l-71 -66 -24
33 c-64 87 -64 76 3 138 52 48 60 61 60 91 0 22 -7 42 -18 52 -34 31 -67 21
-144 -45z"/>
<path d="M14883 11750 c-46 -19 -38 -103 11 -116 51 -12 92 27 79 75 -4 17
-51 53 -65 50 -2 0 -13 -4 -25 -9z"/>
<path d="M11017 11729 c-31 -23 -34 -45 -11 -77 19 -27 64 -29 87 -4 49 54
-19 127 -76 81z"/>
<path d="M5505 11695 c-42 -34 -70 -38 -155 -20 -84 18 -127 14 -183 -18 -141
-79 -86 -282 75 -280 55 1 91 24 86 57 -2 16 -15 24 -52 33 -59 15 -81 33 -72
61 10 32 52 40 126 26 36 -7 82 -13 102 -13 76 -2 188 71 188 122 0 57 -63 75
-115 32z"/>
<path d="M10489 11661 c-45 -14 -69 -31 -84 -61 -20 -40 -19 -65 8 -119 25
-53 249 -278 284 -287 63 -16 70 29 14 93 l-40 44 41 65 c22 35 42 64 44 64 3
0 28 -12 56 -26 60 -30 95 -26 104 12 10 38 -34 77 -146 134 -138 69 -231 96
-281 81z m132 -134 l36 -16 -26 -54 -25 -54 -39 46 c-21 25 -45 59 -54 75
l-15 29 44 -6 c23 -2 59 -12 79 -20z"/>
<path d="M8074 11605 c-105 -27 -125 -37 -149 -77 -22 -38 -13 -77 28 -116 42
-41 94 -61 197 -78 118 -19 163 -18 191 5 31 25 18 50 -37 70 -21 8 -40 15
-40 15 -1 1 -5 20 -9 42 l-6 42 58 6 c78 10 91 14 103 37 41 75 -142 105 -336
54z m64 -153 c-11 -5 -80 19 -74 25 3 3 20 8 38 12 28 6 34 4 39 -13 3 -12 2
-22 -3 -24z"/>
<path d="M14094 11579 c-102 -30 -147 -183 -90 -305 52 -111 203 -173 294
-119 67 40 108 134 78 180 -28 43 -79 30 -116 -30 -26 -42 -52 -45 -101 -12
-39 26 -59 60 -59 102 0 44 21 79 55 90 43 14 55 24 55 44 0 40 -61 67 -116
50z"/>
<path d="M5698 11477 c-166 -89 -239 -168 -240 -261 -2 -88 59 -133 167 -123
143 14 345 108 345 161 0 39 -27 47 -94 30 -32 -8 -60 -13 -63 -10 -12 12 -51
106 -44 106 4 0 26 16 49 36 48 41 54 74 20 98 -12 9 -27 16 -33 16 -5 0 -54
-24 -107 -53z m-4 -206 l28 -29 -56 -12 c-31 -6 -62 -10 -68 -8 -11 4 47 78
61 78 4 0 20 -13 35 -29z"/>
<path d="M2361 11404 c-91 -46 -112 -111 -66 -198 31 -59 31 -70 -1 -95 -39
-30 -57 -28 -49 7 8 39 -13 57 -48 41 -54 -25 -70 -118 -28 -163 20 -21 34
-26 74 -26 59 0 103 19 150 66 60 60 66 130 18 208 -23 36 -14 56 25 56 26 0
38 -13 53 -62 18 -56 66 -66 101 -20 44 54 8 152 -70 192 -53 27 -96 25 -159
-6z"/>
<path d="M10241 11345 c-39 -34 -55 -83 -42 -130 19 -71 87 -135 143 -135 13
0 50 11 83 25 55 23 60 23 77 8 10 -9 18 -22 18 -28 0 -17 -28 -27 -51 -20
-21 7 -69 -34 -69 -58 0 -23 38 -64 65 -71 39 -10 106 12 142 47 59 56 54 143
-13 217 -59 65 -119 73 -208 28 -38 -19 -40 -20 -53 -2 -19 26 -16 43 11 54
13 5 27 14 31 19 11 18 -4 47 -31 59 -39 18 -70 14 -103 -13z"/>
<path d="M13802 11338 c-21 -21 -14 -43 38 -122 27 -42 48 -76 45 -76 -2 0
-32 6 -67 14 -35 8 -85 14 -113 14 -114 -2 -114 -37 -2 -200 45 -67 94 -134
109 -150 31 -33 69 -37 98 -8 32 32 25 71 -26 140 -25 34 -44 64 -42 66 2 2
37 -8 77 -22 87 -30 142 -26 167 12 22 33 9 64 -66 168 -105 145 -181 201
-218 164z"/>
<path d="M7871 11250 c-51 -11 -71 -25 -71 -51 0 -26 47 -47 122 -55 l65 -6 6
-62 c3 -34 8 -68 11 -76 5 -12 -14 -18 -99 -32 -58 -10 -110 -20 -115 -23 -9
-5 -15 -53 -7 -56 1 -1 117 -7 257 -14 265 -13 311 -9 333 26 5 9 7 27 4 41
-10 37 -51 48 -175 48 l-105 0 6 66 c2 36 6 67 8 69 2 1 48 -1 102 -6 80 -8
103 -7 127 6 51 27 51 83 0 110 -36 18 -399 30 -469 15z"/>
<path d="M2672 11213 c-19 -7 -39 -52 -46 -103 -15 -101 -12 -95 -75 -108
-101 -21 -171 -104 -158 -187 8 -47 53 -111 93 -130 19 -9 55 -18 82 -21 47
-6 47 -6 127 66 44 40 117 104 161 142 84 70 103 102 84 139 -26 47 -78 42
-142 -16 -44 -40 -45 -41 -77 -16 l-24 18 27 77 c31 90 32 108 8 129 -19 17
-36 20 -60 10z m-2 -330 c0 -9 -122 -133 -131 -133 -13 0 -40 71 -34 90 4 11
18 27 33 35 28 14 132 21 132 8z"/>
<path d="M5936 11146 c-22 -8 -56 -31 -75 -51 -36 -35 -36 -36 -36 -124 l0
-88 -30 8 c-16 5 -31 9 -32 9 -1 0 -3 10 -5 21 -8 54 -77 45 -97 -13 -18 -50
8 -94 71 -123 62 -29 116 -32 164 -9 53 25 67 62 59 152 -7 80 -2 92 42 92 35
0 46 -33 39 -110 -8 -76 5 -100 50 -100 60 0 89 47 89 145 0 138 -121 234
-239 191z"/>
<path d="M10056 11064 c-24 -23 -19 -57 12 -86 38 -35 272 -212 299 -227 28
-14 66 -14 81 1 14 14 16 53 2 77 -5 10 -49 48 -97 83 -233 171 -263 187 -297
152z"/>
<path d="M13421 11000 c-110 -71 -114 -124 -19 -272 66 -103 116 -148 166
-148 49 0 68 14 136 103 60 78 67 104 38 130 -29 26 -47 21 -108 -33 -54 -47
-58 -49 -76 -34 -17 16 -16 18 17 55 38 43 53 85 37 101 -14 14 -84 -5 -102
-27 -14 -17 -30 -20 -30 -5 0 6 16 34 35 63 37 55 42 76 23 95 -21 21 -53 13
-117 -28z"/>
<path d="M2955 10911 c-16 -10 -62 -52 -101 -93 -86 -91 -114 -154 -114 -257
0 -60 3 -71 26 -95 47 -46 116 -33 234 47 94 64 208 160 214 179 15 60 -51 77
-118 32 l-39 -26 -34 37 -34 37 31 34 c37 42 40 86 8 108 -29 20 -36 20 -73
-3z m23 -267 c2 -1 -23 -18 -55 -37 -32 -20 -59 -34 -61 -32 -6 6 19 77 36
103 l15 23 31 -28 c17 -15 32 -29 34 -29z"/>
<path d="M9953 10910 c-29 -12 -40 -54 -20 -83 8 -12 56 -67 106 -121 50 -55
89 -101 87 -103 -1 -2 -63 12 -137 31 -86 21 -140 30 -150 25 -44 -23 -25 -75
40 -108 58 -30 238 -81 308 -88 59 -6 63 -4 92 25 36 36 40 72 12 118 -24 40
-256 285 -284 301 -26 14 -25 14 -54 3z"/>
<path d="M13174 10756 c-13 -22 -14 -31 -5 -54 19 -45 174 -245 202 -261 34
-19 73 -8 87 24 18 40 -3 78 -115 200 -110 122 -138 137 -169 91z"/>
<path d="M6040 10756 c-130 -29 -190 -66 -190 -116 0 -64 47 -73 164 -30 32
11 87 24 122 27 59 5 64 4 64 -14 0 -25 -59 -80 -148 -137 -78 -49 -92 -67
-71 -92 30 -36 177 9 265 81 57 47 88 112 81 171 -12 106 -119 147 -287 110z"/>
<path d="M3250 10673 c-24 -8 -40 -34 -40 -65 0 -20 17 -45 62 -94 l62 -66
-49 -42 c-155 -128 -198 -185 -177 -231 20 -42 52 -31 169 56 175 133 203 164
203 235 0 32 -9 46 -72 110 -71 72 -128 106 -158 97z"/>
<path d="M12961 10586 c-36 -20 -50 -55 -51 -123 0 -95 48 -183 128 -234 84
-53 161 -32 221 58 40 61 42 115 6 139 -35 23 -66 8 -100 -50 -16 -28 -34 -46
-45 -46 -24 0 -78 65 -92 112 -11 38 -5 74 11 64 16 -10 41 5 41 26 0 26 -44
68 -72 68 -13 -1 -34 -7 -47 -14z"/>
<path d="M12572 10490 c-65 -40 -90 -146 -53 -225 42 -92 128 -126 227 -92 79
28 92 29 114 7 28 -28 26 -75 -6 -107 -22 -22 -31 -24 -66 -19 -72 12 -104
-48 -53 -99 18 -19 35 -25 70 -25 109 0 187 83 187 200 0 64 -16 101 -61 144
-39 37 -116 46 -187 22 -26 -9 -57 -16 -69 -16 -61 0 -81 106 -25 135 37 19
40 57 8 79 -30 21 -46 20 -86 -4z"/>
<path d="M3503 10316 c-87 -28 -154 -88 -203 -184 -58 -111 -2 -252 99 -252
177 1 370 139 371 267 1 120 -140 210 -267 169z m114 -158 c20 -16 -9 -59 -69
-105 -79 -60 -97 -68 -115 -50 -22 22 -10 59 35 109 56 62 108 78 149 46z"/>
<path d="M8184 10260 c-18 -6 -46 -26 -62 -45 -58 -65 -67 -161 -28 -282 7
-22 5 -23 -51 -23 -294 0 -688 -131 -980 -326 l-112 -75 -68 45 c-130 86 -195
84 -245 -9 -32 -59 -74 -205 -97 -331 l-16 -92 -179 -190 c-247 -264 -611
-603 -806 -752 -131 -100 -208 -143 -267 -151 -68 -9 -139 -45 -236 -118 -395
-296 -868 -821 -1056 -1171 -136 -253 -199 -557 -172 -821 35 -336 182 -659
439 -969 133 -161 475 -499 747 -740 498 -441 630 -606 744 -932 39 -112 86
-345 106 -523 16 -139 79 -647 96 -779 6 -39 19 -90 30 -115 18 -42 21 -44 31
-26 21 36 20 159 -2 360 -12 110 -24 229 -26 265 -32 502 -96 804 -227 1065
-109 219 -256 382 -681 755 -701 615 -945 912 -1090 1328 -55 158 -70 253 -70
432 0 295 68 514 242 781 79 120 265 355 410 515 157 175 480 467 624 565 l57
39 11 -42 c23 -87 156 -303 279 -453 164 -201 277 -309 388 -372 l57 -32 -114
-54 c-141 -66 -204 -115 -271 -210 -172 -241 -238 -572 -169 -842 62 -241 259
-445 580 -599 257 -123 496 -168 770 -146 109 9 271 40 331 65 13 5 21 -13 44
-107 166 -676 451 -1058 790 -1058 356 1 720 429 919 1084 20 66 37 120 39
122 1 1 40 -5 87 -13 135 -22 521 -22 639 0 263 49 563 205 720 373 172 184
261 389 261 596 0 198 -101 350 -360 543 -72 53 -138 108 -147 121 -15 23 -14
26 5 47 52 57 127 200 182 348 97 260 148 690 106 889 -8 36 -12 67 -10 69 14
15 301 -204 479 -365 616 -554 990 -1119 1111 -1677 64 -297 35 -565 -88 -797
-105 -200 -271 -375 -718 -761 -562 -484 -727 -637 -860 -794 -191 -227 -321
-493 -395 -809 -83 -358 -150 -1089 -114 -1256 28 -130 78 5 93 250 65 1042
203 1465 619 1889 106 109 309 290 732 656 165 143 352 311 416 375 415 414
530 808 394 1351 -82 325 -273 699 -517 1011 -311 396 -820 863 -1076 986 -86
41 -161 53 -181 28 -7 -9 -19 -16 -26 -16 -13 0 -399 365 -537 506 -41 43 -88
106 -123 169 -72 127 -118 187 -217 289 -75 78 -81 86 -129 209 -54 136 -97
203 -144 226 -41 20 -126 1 -174 -37 l-36 -29 -30 19 c-16 11 -42 24 -57 29
l-26 10 29 62 c45 95 36 180 -23 221 -48 34 -152 12 -232 -49 l-34 -26 -6 28
c-9 33 -80 176 -107 215 -43 60 -148 98 -215 78z m912 -615 c15 -20 58 -120
96 -223 46 -122 85 -211 115 -257 33 -51 162 -186 472 -494 234 -233 450 -441
478 -463 64 -49 68 -65 59 -236 -9 -168 -45 -418 -66 -451 -16 -27 -71 24
-256 235 -101 117 -204 228 -229 248 -50 42 -141 85 -229 111 -207 59 -289
154 -405 470 -64 172 -103 233 -183 281 -59 36 -61 36 -121 26 -72 -11 -81 -9
-66 21 18 36 152 167 170 167 18 0 106 -62 204 -143 63 -52 81 -50 45 7 -41
67 -212 206 -253 206 -26 0 -68 -24 -97 -55 -14 -15 -37 -36 -52 -46 l-27 -19
21 72 c55 201 109 331 132 322 8 -3 78 -75 157 -160 129 -140 185 -194 203
-194 14 0 -10 62 -69 176 -75 146 -158 274 -226 348 l-49 54 42 15 c73 26 103
22 134 -18z m-2285 -132 l49 -26 -73 -76 c-41 -42 -81 -89 -90 -106 -17 -33
-103 -119 -95 -95 3 9 16 52 28 95 27 96 66 203 81 222 17 20 46 16 100 -14z
m150 -194 c18 -26 108 -211 130 -267 7 -18 -5 -11 -48 28 -77 69 -173 113
-173 79 0 -5 39 -47 88 -92 103 -96 162 -157 162 -168 0 -16 -34 -17 -112 -3
-171 30 -208 -5 -259 -248 -17 -79 -39 -164 -49 -190 -58 -153 -164 -277 -297
-345 -88 -46 -199 -83 -249 -83 -48 0 -74 -16 -121 -73 -23 -29 -85 -104 -138
-167 -89 -105 -225 -282 -250 -325 -9 -15 -19 -6 -73 61 -116 146 -262 373
-262 408 0 6 42 32 94 59 154 78 298 193 619 495 103 98 294 291 425 431 258
277 439 443 472 434 11 -3 30 -18 41 -34z m1742 -1046 c71 -182 196 -419 268
-505 l39 -47 -6 -93 c-7 -107 9 -250 31 -284 29 -45 59 -42 139 14 113 79 174
80 197 2 18 -60 -2 -155 -57 -268 -53 -110 -134 -202 -176 -202 -15 0 -30 5
-33 10 -9 14 -51 12 -63 -2 -5 -7 -18 -51 -27 -97 -35 -173 -141 -437 -226
-563 -145 -215 -399 -377 -653 -419 -211 -34 -509 46 -723 193 -160 109 -341
326 -412 493 -16 39 -52 151 -79 248 -27 98 -52 181 -55 184 -4 3 -13 3 -22
-1 -12 -4 -14 -14 -9 -42 l7 -37 -38 6 c-91 15 -180 107 -224 231 -29 84 -43
203 -31 267 16 82 35 94 108 63 46 -19 92 -62 145 -137 48 -68 77 -73 113 -20
31 46 36 102 34 328 -4 289 -6 275 30 275 64 0 488 122 749 216 292 106 545
224 761 358 l135 83 22 -83 c12 -45 37 -122 56 -171z m-2496 -500 c-6 -184
-17 -240 -69 -333 -64 -115 -50 -118 -175 40 l-110 138 99 117 c171 204 165
200 237 204 l24 1 -6 -167z m3713 -48 c63 -71 120 -138 128 -147 12 -15 12
-27 -3 -90 -10 -40 -21 -79 -25 -86 -4 -9 -25 7 -68 52 -66 71 -121 172 -146
271 -17 63 -22 155 -8 140 5 -6 60 -68 122 -140z m-1557 -2157 c35 -60 112
-135 173 -170 l53 -29 -49 -137 c-134 -380 -221 -547 -359 -682 -129 -128
-232 -160 -346 -107 -105 49 -238 216 -334 418 -45 94 -179 467 -170 472 2 1
32 26 67 56 57 48 64 52 80 38 38 -34 169 -52 270 -37 150 21 331 109 490 236
l77 62 11 -39 c7 -21 23 -58 37 -81z"/>
<path d="M8127 7943 c-29 -29 29 -99 115 -139 61 -28 67 -29 228 -29 l165 0
48 -33 c48 -34 77 -36 77 -7 0 32 -29 71 -71 94 -41 23 -51 24 -192 22 -173
-2 -231 10 -301 64 -47 36 -58 40 -69 28z"/>
<path d="M7662 7895 c-54 -38 -116 -47 -252 -33 -130 13 -190 5 -240 -31 -27
-19 -68 -86 -59 -96 3 -3 44 6 91 20 76 21 102 24 229 22 139 -2 146 -1 200
25 40 20 61 38 77 67 12 21 22 41 22 45 0 13 -37 3 -68 -19z"/>
<path d="M7967 7903 c-27 -26 17 -128 60 -139 62 -16 78 16 32 66 -17 19 -38
45 -46 58 -15 22 -34 28 -46 15z"/>
<path d="M8372 7484 c-58 -41 -84 -151 -57 -239 45 -143 160 -154 224 -22 25
52 28 154 6 196 -36 71 -120 103 -173 65z"/>
<path d="M7412 7474 c-58 -41 -84 -151 -57 -239 36 -112 116 -149 188 -85 44
38 72 121 62 182 -8 51 -46 121 -77 143 -29 19 -87 19 -116 -1z"/>
<path d="M6612 7348 c-15 -15 -16 -84 -1 -93 6 -4 16 1 23 10 11 15 19 3 60
-94 64 -148 96 -147 65 1 -27 125 -105 218 -147 176z"/>
<path d="M9251 7326 c-55 -31 -131 -205 -131 -300 0 -41 19 -30 42 22 31 72
95 205 106 221 9 13 13 13 27 1 14 -11 18 -12 25 0 10 16 2 41 -18 58 -19 15
-21 15 -51 -2z"/>
<path d="M7866 6818 c-37 -53 -7 -128 60 -154 36 -14 46 -14 71 -2 42 20 35
40 -21 60 -59 21 -67 32 -59 81 5 33 3 37 -15 37 -12 0 -28 -10 -36 -22z"/>
<path d="M7991 6458 c-39 -11 -127 -65 -153 -94 -22 -26 -56 -102 -58 -134 -4
-54 1 -73 29 -101 43 -43 103 -41 188 7 52 29 79 37 149 44 96 10 129 26 149
73 19 45 8 84 -35 127 -67 67 -184 101 -269 78z"/>
<path d="M3803 10043 c-131 -106 -242 -207 -258 -237 -31 -57 -6 -106 47 -93
14 4 53 27 87 52 l61 45 59 -47 59 -47 -41 -49 c-63 -72 -74 -94 -61 -114 6
-10 24 -19 40 -21 23 -2 47 11 114 65 111 89 210 185 210 205 0 26 -40 68 -65
68 -14 0 -48 -19 -78 -44 l-55 -44 -41 42 c-22 23 -41 47 -41 53 0 6 22 27 49
47 71 52 88 108 45 151 -28 28 -68 18 -131 -32z"/>
<path d="M12145 9983 c-34 -9 -63 -33 -75 -64 -18 -41 -4 -81 71 -215 81 -143
104 -174 134 -174 34 0 40 31 15 87 l-21 47 41 40 40 40 49 -48 c51 -50 83
-58 104 -25 19 30 -3 66 -102 165 -127 125 -192 163 -256 147z m99 -137 l39
-32 -23 -32 c-13 -18 -26 -32 -30 -32 -8 0 -60 107 -60 124 0 21 30 10 74 -28z"/>
<path d="M11958 9793 c-164 -135 -190 -169 -146 -197 13 -8 27 -5 59 13 34 20
43 21 50 10 66 -110 141 -217 161 -228 23 -13 29 -13 52 2 43 28 35 62 -39
163 -109 148 -102 130 -66 160 37 31 43 77 12 94 -30 16 -47 12 -83 -17z"/>
<path d="M4152 9704 c-41 -28 -22 -81 36 -99 39 -11 82 -55 82 -82 0 -39 -65
-98 -130 -117 -89 -26 -132 -18 -150 30 -13 33 -50 29 -68 -8 -10 -22 -10 -33
1 -61 31 -73 112 -106 211 -87 126 25 206 82 249 178 35 82 4 174 -77 230 -54
36 -116 43 -154 16z"/>
<path d="M11650 9533 c-33 -12 -50 -37 -50 -72 0 -51 26 -146 56 -209 34 -70
115 -158 137 -149 26 10 20 54 -14 110 -27 44 -29 51 -15 59 9 5 28 20 43 32
l27 23 33 -43 c58 -75 139 -69 119 9 -10 42 -135 183 -184 210 -48 25 -124 40
-152 30z m114 -122 c6 -9 -40 -68 -47 -61 -3 3 -8 24 -12 47 l-7 43 31 -11
c17 -6 33 -14 35 -18z"/>
<path d="M4420 9423 c-8 -3 -26 -15 -38 -27 -62 -55 -69 -135 -21 -232 17 -35
28 -68 25 -73 -10 -16 -73 -41 -103 -41 -39 0 -53 16 -53 62 0 33 -3 38 -22
38 -28 0 -39 -8 -61 -40 -22 -31 -21 -57 1 -99 59 -109 279 -90 340 29 27 54
24 87 -18 173 -35 71 -31 97 15 97 51 0 78 -40 70 -101 -5 -36 -3 -50 10 -63
22 -21 57 -20 86 3 21 17 24 28 24 89 0 63 -3 74 -31 108 -51 63 -77 78 -147
81 -34 1 -69 0 -77 -4z"/>
<path d="M11303 9386 c-58 -19 -100 -51 -123 -96 l-20 -38 45 -64 c24 -35 86
-123 136 -196 107 -155 139 -180 187 -145 44 32 70 79 88 160 29 132 8 261
-54 327 -58 61 -161 82 -259 52z m136 -109 c43 -21 63 -69 62 -150 0 -39 -4
-85 -9 -102 l-8 -29 -34 49 c-53 79 -138 182 -162 199 -26 18 -24 21 22 34 49
14 101 14 129 -1z"/>
</g>
</svg>
