<?xml version="1.0" standalone="no"?>
<!DOCTYPE svg PUBLIC "-//W3C//DTD SVG 20010904//EN"
 "http://www.w3.org/TR/2001/REC-SVG-20010904/DTD/svg10.dtd">
<svg version="1.0" xmlns="http://www.w3.org/2000/svg"
 width="1600.000000pt" height="1600.000000pt" viewBox="0 0 1600.000000 1600.000000"
 preserveAspectRatio="xMidYMid meet">

<g transform="translate(0.000000,1600.000000) scale(0.100000,-0.100000)"
fill="#000000" stroke="none">
<path d="M7870 14500 c-392 -33 -767 -173 -1151 -431 -494 -331 -955 -894
-1268 -1550 -370 -773 -584 -1630 -670 -2684 -53 -634 -38 -1292 37 -1675 l17
-85 50 -8 c65 -11 1098 -14 1193 -4 l72 8 0 -46 c0 -58 -39 -249 -52 -254 -5
-1 -67 -42 -138 -90 -498 -334 -790 -733 -1145 -1566 -156 -366 -300 -770
-415 -1165 l-42 -145 -86 -2 c-106 -2 -222 -26 -276 -56 -41 -23 -66 -57 -30
-42 11 4 97 10 191 13 185 5 181 6 167 -44 -5 -18 -11 -21 -47 -17 -56 7 -273
-13 -315 -28 -45 -16 -24 -29 48 -29 58 0 270 -26 277 -34 2 -2 -8 -50 -23
-105 l-27 -101 -46 5 c-55 7 -92 -9 -105 -46 -13 -39 -1 -71 50 -127 l45 -51
-36 -158 c-20 -87 -38 -158 -38 -158 -18 -3 -104 -52 -131 -75 -47 -42 -72
-84 -91 -155 -17 -66 -13 -95 15 -95 13 0 31 24 62 82 50 95 94 131 204 167
86 28 248 38 354 22 41 -7 75 -13 77 -15 2 -1 -14 -43 -35 -92 l-39 -89 -43 3
c-64 4 -252 -15 -329 -34 -154 -38 -237 -100 -267 -200 -28 -98 18 -116 70
-27 34 58 53 79 61 71 3 -3 -8 -86 -24 -184 -93 -548 -133 -927 -113 -1049 13
-79 40 -118 66 -95 12 9 16 33 16 99 0 102 19 282 60 561 40 276 115 718 122
725 13 13 168 34 251 35 80 0 88 -2 83 -17 -3 -10 -21 -56 -39 -103 l-33 -85
-71 -5 c-83 -6 -123 -33 -123 -81 0 -34 47 -91 89 -109 l29 -12 -19 -56 c-26
-74 -22 -106 12 -110 31 -4 35 6 148 298 43 113 143 351 221 530 78 179 176
406 217 505 86 207 167 393 283 655 45 102 147 343 225 535 79 193 160 388
180 435 93 214 240 597 294 767 33 104 103 323 156 488 138 434 179 613 206
900 15 163 -6 485 -56 864 -33 249 -10 394 98 606 52 103 160 263 165 244 1
-10 -28 -113 -67 -230 -79 -242 -88 -291 -71 -375 12 -60 77 -207 125 -284 27
-42 27 -44 10 -72 -19 -33 -14 -58 11 -58 10 0 92 73 183 163 179 176 216 201
321 218 86 14 189 -2 334 -53 72 -24 146 -43 185 -46 l66 -5 -23 26 c-55 59
-264 139 -419 160 -106 14 -203 0 -287 -42 l-61 -30 -23 27 c-62 73 -149 195
-198 279 l-55 93 20 68 c12 38 26 114 33 169 10 91 10 104 -5 127 -27 41 -55
33 -119 -35 l-57 -61 -24 53 c-28 63 -63 169 -72 219 -10 53 -35 100 -53 100
-8 0 -31 -18 -51 -39 -62 -67 -114 -67 -187 1 -52 48 -113 166 -139 267 -50
196 -17 395 80 479 40 36 95 43 143 18 31 -16 113 -100 131 -134 9 -17 21 -22
52 -22 38 0 41 3 59 43 10 23 70 247 134 497 119 475 174 681 182 689 2 2 4
-48 4 -111 0 -168 2 -176 67 -205 l53 -25 -47 -52 c-63 -68 -104 -145 -106
-198 -3 -69 23 -62 77 21 110 171 225 227 344 170 27 -13 113 -89 219 -191
234 -227 370 -316 510 -333 57 -7 148 14 148 34 0 9 -44 29 -120 56 -206 72
-258 107 -481 325 l-144 140 192 0 c106 -1 391 -5 633 -10 594 -11 908 1 1379
53 152 17 150 14 155 238 1 93 7 169 11 169 7 0 40 -61 40 -74 0 -4 16 -47 35
-97 20 -50 46 -134 59 -187 13 -53 44 -167 69 -252 25 -85 62 -229 82 -320
105 -481 103 -475 134 -483 29 -7 65 24 112 99 49 77 128 150 178 165 48 14
89 -5 131 -62 70 -98 61 -234 -32 -476 -77 -200 -148 -270 -264 -261 -42 4
-61 11 -82 31 -30 29 -63 35 -80 14 -6 -7 -18 -47 -27 -89 -93 -453 -341 -861
-685 -1129 -234 -182 -478 -303 -736 -364 -306 -73 -619 -72 -879 4 -144 41
-370 124 -441 161 -50 26 -72 32 -123 31 -105 0 -168 -30 -265 -125 -104 -101
-79 -112 209 -97 116 6 242 11 280 11 65 -1 69 -2 50 -16 -32 -25 -140 -78
-265 -129 -146 -61 -173 -83 -191 -165 -12 -51 5 -142 57 -302 76 -239 80
-374 14 -532 -44 -105 -96 -173 -188 -243 -137 -107 -142 -117 -310 -619 -89
-264 -139 -435 -188 -635 -36 -151 -127 -519 -201 -819 -74 -300 -172 -709
-218 -910 -46 -201 -118 -511 -160 -690 -91 -386 -207 -963 -230 -1145 -19
-141 -13 -217 16 -223 18 -3 59 80 59 118 0 16 5 20 18 16 54 -16 136 -16 231
-1 60 10 122 14 145 11 23 -4 142 -40 266 -81 326 -108 578 -156 507 -97 -54
45 -652 261 -768 277 -27 4 -80 0 -135 -10 -49 -9 -123 -15 -164 -13 l-75 3 3
50 c3 50 84 459 141 717 17 76 31 140 31 143 0 3 48 -19 108 -49 338 -169
1046 -457 1522 -617 502 -170 1051 -301 1244 -298 l51 1 -60 28 c-33 15 -122
48 -197 72 l-137 43 6 42 c20 149 -118 274 -267 242 -59 -13 -133 -73 -152
-124 -6 -19 -19 -35 -26 -35 -23 0 -227 62 -437 134 -432 146 -971 357 -1463
573 -135 59 -171 79 -168 92 9 28 143 608 206 891 34 151 111 473 172 715 60
242 136 557 169 700 33 143 75 319 94 390 36 140 253 816 286 893 25 58 54 89
146 158 231 172 316 474 219 779 l-23 73 42 4 42 3 7 -120 c33 -566 189 -1136
397 -1455 106 -161 275 -281 424 -299 375 -44 754 248 1026 792 127 252 220
501 324 862 34 121 66 234 70 252 6 28 10 32 33 28 15 -3 68 -11 117 -19 652
-107 1248 -627 1669 -1456 251 -494 403 -982 501 -1605 14 -88 25 -167 25
-175 0 -13 -28 -15 -192 -15 -220 -1 -326 -15 -563 -75 -191 -49 -329 -99
-482 -177 l-123 -62 0 169 c0 93 -4 180 -10 194 -9 26 -34 35 -45 17 -12 -20
-24 -165 -34 -396 -28 -623 -33 -728 -52 -985 -11 -151 -36 -450 -56 -665 -39
-426 -49 -699 -24 -728 39 -47 57 45 101 508 79 832 110 1269 110 1552 l0 112
31 17 c68 35 259 107 369 138 265 78 450 105 766 113 l231 6 6 -64 c4 -35 10
-190 13 -344 13 -572 -38 -1138 -156 -1717 -49 -239 -59 -328 -40 -358 15 -24
35 12 74 130 160 491 260 1313 242 1995 -4 138 -9 274 -13 304 l-6 54 58 -5
c51 -4 56 -3 39 9 -10 7 -35 19 -55 25 -41 12 -49 27 -49 96 0 36 3 43 18 39
44 -13 117 -18 107 -9 -13 14 -110 62 -124 62 -6 0 -11 5 -11 10 0 30 -45 327
-71 465 -171 916 -546 1707 -1069 2259 -300 317 -723 566 -1091 644 -86 18
-209 51 -209 55 0 1 244 3 543 3 627 2 1166 22 1212 47 39 20 60 44 82 92 21
48 22 207 4 885 -36 1397 -94 1945 -286 2695 -172 671 -406 1232 -651 1558
-184 245 -388 430 -568 513 -123 56 -256 63 -362 19 -31 -13 -34 -12 -40 7
-11 37 -196 211 -292 275 -322 217 -728 324 -1102 293z m-987 -1192 c98 -70
65 -258 -96 -542 -124 -219 -243 -287 -347 -199 -85 71 -85 198 1 389 67 150
198 316 281 359 61 30 111 28 161 -7z m1960 -62 c44 -19 102 -82 126 -137 32
-72 52 -183 58 -319 12 -268 -47 -410 -169 -410 -80 0 -136 49 -186 163 -24
54 -42 59 -71 18 -25 -35 -95 -71 -137 -71 -53 1 -110 35 -138 82 -42 72 -51
141 -32 234 27 132 85 195 186 202 47 3 60 8 60 21 0 9 13 43 29 76 61 128
172 185 274 141z m-1267 -75 c45 -21 76 -63 93 -129 11 -38 14 -42 36 -36 59
15 140 -45 165 -121 20 -60 9 -189 -22 -255 -52 -116 -131 -174 -224 -168 -52
3 -53 2 -84 -40 -40 -56 -84 -82 -138 -82 -84 0 -143 54 -163 147 -24 115 6
359 62 508 39 104 76 152 139 179 47 20 87 19 136 -3z m1845 -1 c87 -24 203
-214 224 -366 19 -146 -81 -244 -203 -199 -83 31 -127 90 -211 277 -48 107
-16 232 69 276 49 25 68 27 121 12z m-3390 -4597 c42 -43 83 -89 91 -103 11
-17 19 -63 23 -145 4 -66 5 -118 2 -115 -3 3 -47 75 -99 161 -100 164 -144
259 -134 284 9 23 30 8 117 -82z m2839 -568 c0 -19 -140 -427 -180 -524 -182
-442 -410 -734 -624 -796 -186 -54 -343 103 -441 440 -24 84 -75 326 -89 424
-6 42 -6 43 16 36 13 -4 59 -9 104 -12 285 -19 888 190 1154 400 43 34 60 43
60 32z m-2794 -402 c-3 -10 -14 -55 -25 -99 -12 -45 -52 -178 -90 -295 -38
-118 -88 -275 -110 -349 -89 -301 -186 -563 -369 -995 -44 -104 -121 -291
-170 -415 -50 -124 -133 -324 -185 -445 -148 -342 -136 -318 -160 -311 -171
49 -394 96 -457 96 -15 0 -29 2 -32 6 -19 18 213 715 357 1074 367 914 669
1358 1150 1694 87 60 99 65 91 39z m-1451 -2919 c103 -17 294 -61 313 -72 19
-13 -5 -74 -27 -68 -65 20 -279 68 -370 82 -61 10 -111 21 -111 25 0 4 4 19
10 33 11 29 2 29 185 0z m7029 -66 c3 -13 6 -38 6 -55 0 -31 -1 -32 -32 -25
-65 14 -428 7 -548 -12 -266 -40 -505 -109 -692 -199 l-108 -52 0 28 c0 26 8
32 113 81 265 125 569 214 837 245 41 5 152 9 246 10 170 1 172 1 178 -21z
m-7089 -88 c119 -20 311 -63 320 -72 3 -3 -23 -74 -58 -159 -35 -85 -66 -162
-70 -172 -6 -16 -10 -15 -44 12 -40 31 -245 136 -326 166 -35 13 -46 22 -43
34 3 9 17 61 32 117 24 91 29 100 48 98 11 -2 75 -13 141 -24z m-264 -290 c56
-22 167 -74 247 -115 80 -41 152 -75 159 -75 18 0 18 1 -28 -109 l-40 -98 -72
14 c-47 9 -118 13 -204 11 -73 -2 -133 0 -133 3 0 20 43 195 50 202 4 5 26 -1
48 -12 101 -51 95 -4 -7 63 -75 49 -161 127 -161 146 0 19 40 10 141 -30z m67
-1067 c-7 -16 -13 -30 -14 -32 -2 -2 -17 7 -35 20 -29 20 -30 23 -13 30 10 4
31 8 46 8 26 1 27 0 16 -26z"/>
<path d="M5224 6249 c-52 -12 -121 -71 -145 -123 -50 -109 6 -250 116 -291 66
-26 153 -17 208 21 49 34 97 119 97 172 0 147 -134 254 -276 221z"/>
<path d="M9249 11585 c-124 -30 -240 -98 -409 -239 -173 -145 -257 -196 -384
-235 -37 -11 -90 -21 -116 -21 -51 0 -75 -16 -64 -44 8 -21 46 -31 116 -30
146 3 277 70 527 272 208 167 316 211 517 212 112 0 150 14 124 45 -7 9 -31
25 -51 36 -46 23 -173 25 -260 4z"/>
<path d="M7605 10886 c-45 -59 -94 -71 -285 -69 -91 0 -227 8 -303 17 -220 25
-265 20 -255 -30 7 -38 50 -54 191 -71 l137 -17 0 -44 c0 -142 98 -237 210
-203 72 21 126 112 118 200 l-3 36 66 7 c108 10 182 61 209 143 23 69 -39 91
-85 31z"/>
<path d="M8357 10913 c-4 -3 -7 -23 -7 -43 0 -86 82 -146 224 -163 l85 -10 6
-51 c9 -73 24 -117 49 -144 72 -80 189 -67 244 27 23 38 27 58 27 117 l0 71
125 17 c150 19 192 30 214 55 43 47 -23 74 -147 61 -45 -5 -152 -16 -237 -25
-167 -18 -377 -16 -443 5 -26 7 -47 24 -65 50 -25 37 -58 51 -75 33z"/>
<path d="M10205 10771 c-62 -37 -122 -128 -162 -242 -41 -118 -9 -153 79 -89
22 17 47 30 53 30 35 0 21 -91 -22 -148 -14 -18 -49 -49 -79 -69 -58 -38 -61
-42 -42 -61 49 -49 170 47 213 167 19 55 19 94 0 130 -21 41 -72 54 -117 30
-11 -6 -22 -8 -25 -6 -9 10 59 130 99 173 43 47 58 53 78 29 19 -23 40 -18 40
8 0 28 -38 67 -66 67 -10 0 -33 -8 -49 -19z"/>
<path d="M5930 10752 c-19 -20 -31 -44 -35 -75 -14 -89 12 -102 50 -27 14 28
27 50 30 50 9 0 53 -96 65 -140 6 -25 13 -52 16 -61 3 -11 -6 -21 -27 -29 -17
-7 -38 -24 -46 -37 -22 -34 -20 -119 4 -174 29 -64 99 -119 117 -91 3 5 -8 36
-24 69 -16 33 -32 72 -36 87 -9 37 3 76 24 76 29 0 60 28 67 60 15 68 -63 267
-118 301 -42 25 -53 24 -87 -9z"/>
<path d="M7865 10027 c-41 -63 -49 -221 -15 -292 42 -86 138 -85 231 2 66 62
65 78 -5 69 -29 -3 -70 -13 -91 -22 -27 -11 -41 -12 -49 -4 -6 6 -13 65 -16
138 -4 108 -7 127 -22 130 -9 2 -24 -8 -33 -21z"/>
<path d="M8555 9290 c-170 -26 -323 -113 -412 -234 -44 -59 -54 -101 -31 -124
23 -23 45 -12 116 56 118 112 218 162 369 183 91 13 123 30 123 64 0 46 -71
70 -165 55z"/>
<path d="M6930 8929 c-134 -20 -283 -118 -360 -239 -64 -99 -18 -95 94 9 48
44 111 92 143 108 55 26 65 28 188 27 72 0 190 -4 263 -9 119 -7 132 -6 132 8
0 23 -100 71 -175 85 -92 17 -213 22 -285 11z"/>
<path d="M9774 7419 c-52 -12 -121 -71 -145 -123 -50 -109 6 -250 116 -291 66
-26 153 -17 208 21 49 34 97 119 97 172 0 147 -134 254 -276 221z"/>
<path d="M7764 5819 c-52 -12 -121 -71 -145 -123 -50 -109 6 -250 116 -291 66
-26 153 -17 208 21 49 34 97 119 97 172 0 147 -134 254 -276 221z"/>
<path d="M11174 5579 c-52 -12 -121 -71 -145 -123 -50 -109 6 -250 116 -291
66 -26 153 -17 208 21 49 34 97 119 97 172 0 147 -134 254 -276 221z"/>
<path d="M6204 4319 c-52 -12 -121 -71 -145 -123 -50 -109 6 -250 116 -291 66
-26 153 -17 208 21 49 34 97 119 97 172 0 147 -134 254 -276 221z"/>
<path d="M9564 4269 c-52 -12 -121 -71 -145 -123 -50 -109 6 -250 116 -291 66
-26 153 -17 208 21 49 34 97 119 97 172 0 147 -134 254 -276 221z"/>
</g>
</svg>
