<?xml version="1.0" standalone="no"?>
<!DOCTYPE svg PUBLIC "-//W3C//DTD SVG 20010904//EN"
 "http://www.w3.org/TR/2001/REC-SVG-20010904/DTD/svg10.dtd">
<svg version="1.0" xmlns="http://www.w3.org/2000/svg"
 width="1600.000000pt" height="1600.000000pt" viewBox="0 0 1600.000000 1600.000000"
 preserveAspectRatio="xMidYMid meet">

<g transform="translate(0.000000,1600.000000) scale(0.100000,-0.100000)"
fill="#000000" stroke="none">
<path d="M7150 14664 c-382 -48 -748 -209 -1090 -480 -126 -100 -403 -381
-518 -526 -596 -752 -891 -1686 -963 -3042 -16 -297 -6 -1137 15 -1386 36
-420 95 -753 168 -947 17 -48 23 -53 66 -67 118 -38 475 -60 846 -53 573 12
1080 38 1206 62 23 4 23 4 6 -8 -10 -6 -53 -35 -95 -62 -313 -207 -445 -308
-666 -512 -353 -325 -705 -750 -1046 -1263 -192 -289 -434 -695 -519 -871 -23
-47 -23 -47 -82 -51 -96 -7 -120 -59 -37 -82 44 -12 43 -10 24 -45 -11 -22
-23 -31 -40 -31 -13 0 -36 -5 -50 -12 -40 -18 -27 -67 23 -84 1 0 -27 -62 -63
-138 -398 -837 -666 -1697 -840 -2691 -51 -288 -28 -563 40 -494 24 24 82 247
120 464 176 1006 436 1833 840 2673 l79 163 30 -7 c175 -37 430 -130 618 -226
91 -46 251 -141 276 -163 2 -2 -3 -82 -12 -178 -26 -281 -38 -687 -31 -1027 3
-173 8 -328 11 -345 3 -19 -18 11 -56 80 -164 292 -291 452 -435 548 -133 89
-159 47 -42 -68 96 -95 153 -180 285 -425 270 -504 390 -689 577 -889 210
-224 363 -345 560 -441 247 -120 407 -167 740 -215 274 -39 464 -48 867 -41
334 7 533 2 1168 -25 523 -22 785 -57 1115 -149 175 -48 307 -75 329 -67 54
21 18 78 -78 123 -65 30 -115 46 -263 84 l-43 11 54 54 c74 75 119 172 215
458 44 131 90 254 101 272 40 65 98 93 353 170 70 20 88 30 85 43 -8 42 -257
36 -404 -9 -56 -17 -77 -31 -124 -77 -65 -65 -93 -127 -156 -347 -84 -293
-163 -413 -319 -487 l-65 -30 -283 31 c-395 43 -596 61 -712 62 -81 0 -95 2
-75 11 226 98 318 155 439 272 225 218 461 540 688 939 160 283 378 594 534
764 71 77 233 229 358 335 34 28 36 44 10 61 -23 14 -110 -31 -206 -107 l-81
-65 -6 37 c-3 20 -15 111 -26 202 -11 91 -23 179 -26 197 -6 32 -5 33 130 122
216 141 509 284 816 399 151 56 401 135 407 128 3 -2 25 -71 49 -152 151 -500
241 -1017 275 -1581 17 -277 7 -890 -20 -1218 -27 -334 -33 -690 -11 -690 56
0 151 402 186 785 21 239 30 918 15 1160 -33 523 -124 1062 -256 1520 -30 102
-58 197 -64 212 -9 24 -7 28 12 34 45 13 117 47 117 54 0 14 -38 18 -100 11
-33 -4 -60 -4 -60 1 0 4 0 11 0 16 0 4 33 14 73 22 39 8 71 20 70 25 -3 12
-96 27 -140 23 l-31 -4 -78 193 c-336 844 -891 1624 -1577 2216 -400 347 -827
560 -1272 636 l-100 17 120 8 c410 25 978 132 1339 251 160 53 343 123 370
140 14 9 32 35 42 58 58 136 -3 1406 -106 2235 -71 560 -190 1140 -331 1607
-182 604 -389 977 -733 1320 -160 160 -246 226 -393 299 -183 92 -346 130
-558 130 -200 0 -348 -34 -449 -103 l-41 -29 -35 30 c-83 70 -338 167 -563
214 -96 20 -158 26 -292 29 -93 2 -186 1 -205 -1z m2130 -1369 c64 -33 154
-180 185 -300 19 -74 19 -126 1 -170 -17 -40 -42 -55 -91 -55 -126 0 -296 362
-230 490 26 51 78 64 135 35z m-648 -81 c140 -71 191 -546 66 -628 -43 -28
-80 -30 -118 -4 -29 19 -67 75 -82 120 -2 5 -25 -1 -52 -12 -53 -24 -79 -21
-120 11 -86 68 -99 256 -26 399 23 46 70 75 108 65 19 -5 32 1 57 25 51 49
101 57 167 24z m-2402 -44 c29 -29 25 -61 -16 -121 -93 -140 -247 -294 -345
-346 -46 -25 -108 -30 -127 -11 -87 87 268 497 431 498 24 0 44 -7 57 -20z
m765 -87 l19 -34 24 31 c51 66 133 80 182 32 53 -54 63 -151 30 -291 -25 -104
-53 -156 -96 -176 -30 -14 -37 -14 -76 0 -24 9 -51 19 -61 22 -13 4 -38 -13
-85 -59 -37 -35 -82 -70 -100 -78 -45 -18 -99 -4 -126 33 -59 79 16 402 120
517 62 68 134 69 169 3z m1038 29 c45 -47 60 -104 60 -227 -1 -123 -12 -186
-48 -261 -62 -128 -157 -82 -186 90 -19 116 11 313 61 394 26 43 74 45 113 4z
m1045 -1117 c176 -432 206 -512 337 -900 54 -159 106 -299 116 -310 15 -15 24
-17 46 -9 23 8 32 23 59 104 46 132 88 210 150 279 97 107 181 126 243 56 53
-61 66 -126 66 -335 0 -205 -14 -295 -65 -405 -57 -127 -183 -223 -304 -232
l-61 -5 -49 46 c-55 51 -66 55 -66 26 0 -11 -13 -73 -29 -138 -16 -64 -41
-175 -56 -247 -90 -430 -249 -741 -514 -1005 -217 -215 -419 -333 -688 -401
-347 -88 -706 -76 -1036 32 -378 125 -654 341 -921 723 -206 294 -317 551
-416 960 -98 403 -148 775 -151 1120 l-2 179 74 18 c101 26 143 46 161 77 9
15 30 90 47 167 18 77 42 176 55 220 l24 80 7 -60 c13 -113 56 -320 71 -342
19 -29 32 -29 196 7 235 52 764 131 1098 164 151 15 893 67 1218 85 127 7 167
12 181 25 27 24 42 106 48 259 3 75 7 136 8 135 2 -2 70 -169 153 -373z m62
-3709 c362 -100 600 -213 886 -422 163 -119 239 -182 390 -324 483 -455 875
-989 1179 -1605 89 -181 235 -516 235 -541 0 -2 -8 -4 -17 -4 -33 0 -247 -58
-373 -100 -329 -111 -714 -308 -897 -458 -31 -24 -44 -30 -47 -21 -2 8 -23 78
-45 156 -44 153 -96 299 -112 308 -12 8 -6 -54 47 -470 25 -192 60 -426 79
-520 56 -283 56 -256 -7 -323 -151 -160 -319 -399 -611 -874 -228 -371 -384
-595 -482 -694 -132 -132 -340 -286 -491 -362 -94 -47 -320 -120 -414 -133
-58 -9 -1029 -13 -1037 -5 -2 2 8 27 22 57 14 30 25 69 25 88 0 190 -218 295
-360 173 -73 -62 -98 -154 -66 -245 l14 -38 -31 6 c-440 89 -594 149 -817 318
-245 185 -569 568 -584 690 -3 23 -13 152 -22 286 -13 195 -15 333 -11 695 5
447 16 655 58 1101 19 207 38 666 26 655 -16 -15 -110 -396 -129 -521 l-21
-146 -78 57 c-190 141 -428 261 -654 331 -49 15 -89 32 -88 38 5 19 162 298
273 485 142 238 361 567 512 768 458 609 970 1092 1459 1377 95 55 256 131
279 131 4 0 3 -19 -2 -42 -14 -61 -4 -408 17 -558 93 -695 218 -1047 404
-1140 55 -28 145 -36 208 -21 125 32 329 197 462 375 182 242 404 694 544
1101 40 116 94 302 111 378 4 17 13 27 24 27 9 0 73 -15 142 -34z m-470 -241
c0 -3 -40 -109 -90 -236 -218 -561 -348 -803 -537 -1000 -140 -146 -249 -194
-308 -135 -88 88 -193 427 -230 745 -21 177 -21 173 13 155 95 -49 396 33 707
195 129 66 327 193 395 250 33 29 50 37 50 26z m-3848 -2745 c162 -53 394
-168 543 -269 165 -111 155 -102 149 -143 l-6 -36 -64 49 c-168 127 -484 273
-734 339 -47 13 -86 24 -88 25 -2 1 5 19 14 39 23 46 33 46 186 -4z m7042 1
c3 -5 -74 -34 -172 -66 -429 -138 -837 -333 -1077 -513 -80 -60 -100 -65 -93
-21 9 67 415 301 758 437 141 56 275 99 441 142 127 32 136 34 143 21z"/>
<path d="M8125 11629 c-163 -22 -377 -104 -419 -162 -18 -25 -19 -29 -5 -43
15 -14 25 -12 110 25 164 70 242 86 414 86 197 0 268 -22 429 -132 48 -33 108
-44 121 -23 10 16 -22 66 -63 98 -62 50 -181 109 -262 131 -88 25 -228 33
-325 20z"/>
<path d="M6555 11410 c-233 -59 -508 -268 -423 -323 13 -9 24 -5 53 19 192
154 364 224 550 224 257 0 411 -131 501 -425 25 -82 27 -104 27 -245 0 -171
-3 -185 -112 -605 -45 -170 -52 -211 -49 -272 4 -83 20 -107 82 -124 69 -19
215 5 268 43 62 43 21 77 -75 63 -29 -5 -81 -9 -117 -9 l-65 -1 2 57 c1 32 25
146 54 255 110 418 127 528 109 692 -14 131 -41 226 -95 336 -81 165 -170 251
-319 303 -100 36 -276 41 -391 12z"/>
<path d="M9915 11022 c-49 -30 -95 -90 -137 -178 -46 -95 -45 -130 3 -165 22
-15 29 -28 29 -53 0 -40 -49 -118 -85 -134 -57 -26 -1 -60 68 -41 72 19 127
96 127 177 0 31 -26 92 -52 119 l-21 22 23 53 c27 64 64 124 98 160 45 49 8
77 -53 40z"/>
<path d="M8470 11014 c-8 -2 -109 -12 -225 -24 -302 -29 -296 -28 -322 -52
-43 -41 -20 -100 46 -118 28 -7 74 -6 172 5 74 8 139 15 145 15 6 0 11 -25 12
-59 5 -172 122 -282 224 -209 58 41 90 160 69 258 -10 46 -9 54 9 77 27 34 25
59 -5 88 -19 19 -34 25 -67 24 -24 -1 -50 -3 -58 -5z"/>
<path d="M6590 10859 c-167 -16 -230 -45 -230 -106 0 -13 9 -32 21 -44 19 -19
30 -20 170 -17 l149 3 0 -71 c0 -128 68 -216 155 -200 82 16 119 87 113 217
-3 79 -2 83 24 110 34 34 35 50 4 86 l-24 28 -144 1 c-78 1 -186 -2 -238 -7z"/>
<path d="M7573 9170 c-76 -10 -122 -28 -161 -64 -32 -28 -43 -51 -36 -70 9
-23 33 -20 100 11 56 26 66 27 209 26 83 0 178 -5 213 -10 70 -11 105 -1 110
33 4 30 -29 54 -89 63 -89 15 -269 20 -346 11z"/>
<path d="M9984 7499 c-52 -12 -121 -71 -145 -123 -50 -109 6 -250 116 -291 66
-26 153 -17 208 21 49 34 97 119 97 172 0 147 -134 254 -276 221z"/>
<path d="M6034 7129 c-52 -12 -121 -71 -145 -123 -50 -109 6 -250 116 -291 66
-26 153 -17 208 21 49 34 97 119 97 172 0 147 -134 254 -276 221z"/>
<path d="M11324 5769 c-52 -12 -121 -71 -145 -123 -50 -109 6 -250 116 -291
66 -26 153 -17 208 21 49 34 97 119 97 172 0 147 -134 254 -276 221z"/>
<path d="M9094 5739 c-52 -12 -121 -71 -145 -123 -50 -109 6 -250 116 -291 66
-26 153 -17 208 21 49 34 97 119 97 172 0 147 -134 254 -276 221z"/>
<path d="M7034 5699 c-52 -12 -121 -71 -145 -123 -50 -109 6 -250 116 -291 66
-26 153 -17 208 21 49 34 97 119 97 172 0 147 -134 254 -276 221z"/>
<path d="M8254 3969 c-52 -12 -121 -71 -145 -123 -50 -109 6 -250 116 -291 66
-26 153 -17 208 21 49 34 97 119 97 172 0 147 -134 254 -276 221z"/>
<path d="M5954 3949 c-52 -12 -121 -71 -145 -123 -50 -109 6 -250 116 -291 66
-26 153 -17 208 21 49 34 97 119 97 172 0 147 -134 254 -276 221z"/>
<path d="M11187 4021 c-164 -66 -338 -171 -529 -322 -189 -151 -322 -301 -298
-339 12 -20 29 -9 205 127 231 178 494 347 713 457 92 46 116 72 92 101 -20
25 -80 17 -183 -24z"/>
<path d="M4345 3670 c-14 -23 9 -48 77 -81 207 -99 470 -304 779 -606 133
-130 169 -150 169 -94 0 44 -24 92 -92 182 -88 118 -253 280 -383 377 -120 91
-313 192 -410 217 -68 17 -131 20 -140 5z"/>
<path d="M11205 3575 c-237 -55 -697 -255 -769 -334 -22 -25 -17 -55 10 -59
12 -2 66 17 120 41 145 65 373 151 586 222 220 72 256 96 212 139 -20 21 -38
19 -159 -9z"/>
<path d="M4340 3245 c-20 -25 -5 -43 86 -99 97 -60 182 -124 415 -313 236
-193 253 -205 287 -201 93 11 -32 159 -331 391 -122 95 -240 168 -325 203 -87
35 -115 39 -132 19z"/>
<path d="M4430 2348 c-22 -8 -36 -20 -38 -33 -2 -18 7 -23 65 -38 37 -10 120
-24 183 -32 128 -17 230 -45 303 -81 86 -44 124 -95 267 -357 87 -160 215
-300 340 -375 109 -64 265 -79 435 -42 160 36 263 49 458 60 106 7 198 15 205
19 9 5 -2 15 -36 29 -111 48 -185 52 -432 22 -227 -28 -382 -35 -455 -21 -150
28 -245 109 -355 303 -139 246 -184 318 -237 371 -114 115 -288 175 -528 183
-98 3 -151 1 -175 -8z"/>
</g>
</svg>
