<?xml version="1.0" standalone="no"?>
<!DOCTYPE svg PUBLIC "-//W3C//DTD SVG 20010904//EN"
 "http://www.w3.org/TR/2001/REC-SVG-20010904/DTD/svg10.dtd">
<svg version="1.0" xmlns="http://www.w3.org/2000/svg"
 width="1600.000000pt" height="1600.000000pt" viewBox="0 0 1600.000000 1600.000000"
 preserveAspectRatio="xMidYMid meet">

<g transform="translate(0.000000,1600.000000) scale(0.100000,-0.100000)"
fill="#000000" stroke="none">
<path d="M7785 14074 c-16 -2 -73 -9 -124 -15 -120 -14 -331 -66 -486 -119
-379 -131 -717 -323 -1126 -640 -228 -176 -389 -352 -558 -609 -63 -97 -180
-328 -207 -412 -16 -47 -16 -81 -1 -80 4 1 56 74 117 163 198 296 354 473 515
587 111 78 160 105 181 97 46 -18 -48 -173 -175 -291 -274 -254 -488 -511
-540 -649 -22 -58 -19 -86 7 -86 22 0 138 121 270 282 157 192 321 359 409
418 41 28 81 50 89 50 54 0 -40 -178 -211 -400 -198 -257 -334 -440 -340 -459
-3 -11 -3 -25 0 -31 13 -20 68 23 198 156 136 140 267 254 292 254 8 0 19 -8
24 -18 8 -14 -23 -59 -171 -242 -212 -266 -326 -433 -403 -590 -54 -111 -56
-119 -70 -250 -33 -295 -92 -483 -206 -652 -44 -64 -123 -147 -252 -262 -85
-76 -90 -83 -152 -210 -61 -126 -132 -314 -191 -501 -16 -49 -29 -92 -31 -94
-1 -2 -33 19 -70 47 -132 98 -407 251 -450 252 -17 0 -18 -3 18 71 99 204 247
557 340 810 38 105 96 259 130 342 34 84 106 271 161 417 235 628 495 1164
693 1430 57 77 133 156 268 279 78 71 49 117 -45 70 -244 -123 -473 -436 -753
-1030 -219 -464 -366 -865 -439 -1194 -15 -66 -36 -140 -46 -165 -21 -53 -161
-357 -322 -700 -63 -135 -118 -254 -122 -265 -5 -19 -13 -20 -82 -17 -174 9
-252 -74 -299 -323 -24 -124 -46 -326 -39 -362 6 -32 5 -33 -30 -33 -83 0
-167 -68 -245 -199 -139 -236 -265 -545 -476 -1171 -152 -451 -200 -581 -525
-1410 -147 -374 -374 -984 -418 -1121 -149 -459 -214 -879 -198 -1279 17 -433
89 -656 309 -953 63 -86 183 -215 230 -249 27 -19 26 -17 -14 48 -118 192
-242 453 -305 640 -62 184 -77 303 -77 604 -1 429 50 721 202 1172 66 195 324
883 498 1328 184 472 295 775 448 1230 200 593 353 964 469 1139 48 71 84 97
176 123 44 13 45 14 61 74 9 33 26 135 38 227 43 340 76 406 195 392 235 -29
755 -364 807 -522 18 -57 5 -149 -41 -269 -22 -59 -42 -109 -44 -112 -3 -2
-40 5 -84 17 -101 27 -142 28 -142 2 0 -25 29 -45 160 -112 66 -33 122 -71
151 -99 84 -84 139 -230 171 -455 24 -164 16 -688 -16 -1060 -125 -1480 -144
-1649 -247 -2270 -208 -1252 -427 -1905 -755 -2245 -224 -232 -452 -317 -754
-281 -104 13 -270 53 -340 83 l-45 19 34 -35 c102 -105 451 -220 610 -201 143
17 317 89 441 184 256 194 460 526 617 1001 177 535 382 1588 462 2375 26 250
95 1082 116 1395 22 331 23 340 43 340 9 0 71 25 137 56 66 31 183 85 260 121
286 133 564 233 860 308 153 39 414 90 421 82 2 -1 -6 -36 -16 -77 -86 -328
-222 -1518 -237 -2060 -7 -271 0 -324 49 -365 58 -49 104 -31 248 96 58 51
146 125 195 164 133 107 529 404 533 401 3 -3 -17 -197 -38 -371 -5 -44 -14
-165 -20 -270 -74 -1351 -113 -1845 -236 -2995 -31 -290 -35 -496 -11 -553 16
-38 34 -46 54 -26 9 9 32 6 90 -9 218 -57 613 -83 973 -63 113 6 295 16 405
21 110 6 247 16 303 24 162 21 147 -28 145 494 -1 439 -14 878 -33 1157 -12
168 -45 481 -60 564 -5 29 -17 158 -25 285 -46 678 -87 1151 -136 1544 -17
134 -29 251 -27 260 8 38 464 -418 789 -788 108 -124 210 -233 227 -242 65
-38 133 -14 171 60 61 121 76 529 35 932 -54 536 -244 1314 -437 1793 l-35 85
52 -18 c423 -147 991 -387 1395 -589 l121 -61 0 -148 c0 -228 33 -937 65
-1402 68 -977 227 -1927 432 -2580 157 -502 330 -817 553 -1008 229 -196 442
-244 715 -159 73 22 179 87 202 124 14 21 14 21 -47 -4 -154 -62 -377 -70
-537 -19 -212 68 -423 289 -573 601 -306 636 -527 1769 -615 3150 -57 901 -77
1501 -56 1706 14 138 40 261 81 393 46 151 54 218 36 307 -9 41 -16 84 -16 97
0 41 69 99 195 165 104 54 120 66 120 87 0 21 -6 26 -32 28 -40 4 -160 -31
-236 -69 -42 -22 -59 -26 -62 -17 -2 7 -24 68 -49 134 -59 160 -70 223 -52
292 31 114 105 197 282 312 214 139 392 217 515 227 l79 6 40 -42 c47 -49 93
-144 150 -306 23 -66 49 -132 56 -147 8 -15 14 -28 14 -30 0 -2 -20 -14 -45
-28 -51 -28 -62 -47 -40 -69 13 -13 23 -13 87 -1 145 27 169 26 218 -12 88
-67 206 -277 299 -533 62 -172 111 -327 247 -780 58 -192 201 -638 319 -990
349 -1044 437 -1392 512 -2030 25 -217 25 -912 0 -1100 -47 -344 -125 -754
-164 -862 -6 -17 -5 -17 14 0 79 69 205 450 252 757 35 231 44 420 38 765 -7
381 -28 601 -92 952 -81 444 -161 723 -465 1633 -110 327 -240 732 -290 900
-186 624 -274 878 -367 1065 -131 262 -242 370 -379 369 l-62 0 -6 44 c-9 66
-71 246 -118 340 -43 89 -112 173 -161 199 -17 8 -62 18 -101 22 l-70 6 -49
85 c-27 47 -76 133 -107 191 -32 59 -116 198 -188 310 -71 112 -150 245 -174
294 -25 50 -96 232 -158 405 -305 856 -473 1197 -698 1412 -90 86 -148 128
-235 169 -58 27 -64 33 -100 101 -47 90 -138 219 -253 358 -289 348 -533 500
-802 500 -115 0 -207 -20 -297 -65 -38 -19 -69 -34 -70 -32 -42 64 -164 217
-213 266 -155 155 -359 262 -582 306 -74 15 -337 27 -395 19z m2406 -1501
c191 -200 352 -442 537 -808 80 -158 155 -280 178 -289 21 -8 28 17 21 74 -18
154 -194 516 -391 805 -72 105 -102 165 -83 165 41 0 170 -118 287 -260 169
-208 314 -515 585 -1245 135 -364 181 -461 321 -680 75 -116 329 -575 337
-606 1 -5 -43 -29 -99 -52 -171 -74 -403 -220 -514 -323 l-47 -44 -63 186
c-109 321 -153 393 -308 503 -121 85 -227 197 -274 288 -33 62 -81 197 -92
256 -2 12 -9 40 -15 62 -6 22 -24 97 -41 167 -39 166 -81 273 -137 350 -26 35
-128 146 -228 248 -213 217 -274 292 -255 315 15 19 3 26 230 -135 239 -170
314 -220 328 -220 21 0 13 28 -17 62 -15 18 -44 65 -64 103 -19 39 -92 158
-162 265 -269 411 -304 467 -306 491 -4 43 1 57 22 62 15 4 40 -11 97 -62 195
-173 417 -434 600 -707 105 -157 162 -203 162 -129 0 45 -30 124 -78 205 -171
288 -376 570 -535 736 -115 120 -152 180 -143 227 16 82 62 78 147 -10z
m-1861 -128 c319 -29 731 -83 745 -97 3 -2 21 -132 40 -289 45 -357 78 -548
108 -640 l24 -71 -26 6 c-14 3 -78 9 -141 12 -130 7 -213 -7 -306 -53 -146
-71 -229 -229 -158 -300 36 -36 98 -29 179 21 80 49 143 66 239 66 101 0 192
-21 268 -62 73 -39 106 -78 160 -186 61 -123 121 -162 201 -129 98 42 99 160
2 322 -20 32 -33 60 -31 62 3 3 46 -15 98 -39 51 -25 143 -66 204 -93 l110
-48 12 -196 c7 -108 12 -242 12 -298 0 -78 3 -103 13 -103 7 0 55 44 107 98
95 97 202 172 245 172 18 0 24 -11 39 -72 10 -40 20 -78 22 -84 3 -7 -13 -13
-44 -16 -137 -13 -239 -181 -250 -408 -4 -88 -2 -108 11 -119 27 -22 56 -4 62
37 26 179 71 306 127 361 42 41 70 41 86 -1 7 -18 21 -44 32 -58 15 -20 23
-23 37 -14 15 9 25 0 71 -69 l53 -80 -21 -66 c-52 -159 -154 -298 -252 -342
-106 -46 -200 -27 -330 67 l-46 34 -6 -27 c-3 -16 -10 -57 -16 -93 -54 -318
-201 -703 -383 -1004 -298 -494 -660 -778 -1120 -878 -88 -19 -132 -22 -322
-22 -191 0 -234 3 -325 22 -317 69 -611 214 -841 415 -330 289 -538 700 -659
1307 -18 85 -34 157 -36 159 -2 3 -17 -7 -32 -21 -47 -44 -176 -108 -216 -108
-91 0 -198 94 -266 234 -80 164 -124 399 -102 546 15 98 35 125 94 124 84 -1
195 -85 381 -289 25 -27 49 -46 53 -42 4 4 7 184 5 400 l-1 392 87 47 c100 53
229 108 352 149 47 16 86 29 89 29 2 0 -13 -20 -33 -44 -49 -60 -112 -185
-120 -238 -18 -117 95 -197 193 -138 18 11 54 50 80 87 140 198 276 272 477
260 88 -5 107 -12 207 -70 82 -47 130 -60 180 -46 75 20 104 85 74 164 -21 53
-100 128 -177 167 -33 17 -48 29 -39 32 8 3 110 17 225 32 116 14 220 30 232
35 12 4 29 22 38 39 14 27 15 53 6 223 -6 106 -11 341 -11 524 l0 331 38 -4
c20 -3 107 -11 192 -19z m-2778 -1950 c34 -116 35 -122 25 -203 -19 -149 16
-380 83 -545 42 -102 88 -174 155 -241 124 -125 284 -162 389 -91 26 17 38 21
41 12 2 -6 18 -70 35 -142 107 -451 272 -791 509 -1049 60 -66 58 -74 -20 -75
-60 -1 -274 -40 -429 -78 -179 -43 -484 -143 -650 -213 -158 -66 -436 -205
-537 -268 -43 -27 -83 -52 -90 -55 -9 -6 -12 43 -12 198 -1 538 -92 840 -295
982 l-29 20 46 84 c117 217 118 379 3 507 l-36 40 103 313 c128 387 108 355
390 629 100 96 171 194 224 306 l37 78 12 -45 c6 -24 27 -98 46 -164z m5423
-661 c61 -62 88 -120 174 -377 43 -129 84 -244 90 -254 7 -14 6 -33 -4 -68
-33 -107 -12 -206 85 -403 66 -137 67 -139 50 -163 -33 -45 -41 -97 -25 -174
22 -104 19 -141 -25 -282 -53 -169 -77 -288 -91 -459 l-12 -141 -101 60 c-111
67 -493 255 -681 337 -204 88 -665 263 -830 315 -49 15 -92 30 -94 31 -2 2 26
43 62 91 113 152 185 272 277 458 109 221 179 406 234 626 l43 167 29 -19 c48
-31 126 -44 194 -31 111 20 202 78 277 177 46 60 133 229 133 258 0 20 155
-88 215 -149z m-1465 -1709 c34 -12 36 -15 78 -146 201 -623 349 -1286 403
-1804 26 -251 12 -800 -21 -820 -4 -3 -86 84 -181 193 -190 217 -671 703 -789
797 l-75 60 37 110 c20 61 59 202 87 315 98 401 134 659 129 932 l-3 173 73
60 c40 33 93 81 119 108 52 51 56 52 143 22z m-2477 -114 c34 -27 100 -72 147
-101 47 -29 86 -53 87 -54 2 -1 -2 -40 -7 -87 -37 -312 124 -1164 255 -1357
l24 -35 -77 -55 c-204 -146 -609 -461 -722 -562 -41 -36 -81 -70 -89 -75 -32
-19 6 670 74 1328 39 376 119 1003 130 1015 3 4 93 29 108 31 4 1 35 -21 70
-48z m484 -489 c129 -181 353 -419 495 -525 242 -181 463 -226 653 -132 89 43
174 129 250 250 31 50 54 79 51 65 -3 -14 -13 -63 -21 -110 -32 -168 -87 -398
-132 -555 -56 -195 -56 -193 -8 -590 23 -190 35 -324 32 -365 -6 -86 -70 -275
-127 -375 -55 -95 -159 -209 -231 -252 -184 -110 -390 -70 -587 112 -111 103
-199 248 -257 425 l-28 84 17 201 c9 110 24 252 33 315 9 63 17 156 17 205 1
85 -1 94 -35 160 -105 202 -215 737 -235 1141 l-6 129 36 -59 c20 -32 57 -88
83 -124z"/>
<path d="M7221 10774 c-175 -47 -327 -216 -367 -406 -32 -154 23 -316 126
-368 47 -24 63 -25 80 -5 10 12 5 27 -28 82 -66 109 -75 138 -70 223 6 104 42
175 132 266 56 56 83 75 126 89 123 41 244 11 347 -86 54 -51 77 -58 96 -28
26 41 -60 152 -153 199 -99 49 -191 60 -289 34z"/>
<path d="M8955 10777 c-89 -30 -158 -77 -199 -135 -30 -44 -33 -77 -8 -91 21
-11 42 -1 94 45 136 121 354 114 471 -15 44 -49 64 -93 83 -185 27 -126 -9
-252 -100 -355 -53 -60 -56 -85 -10 -89 55 -5 134 72 186 183 76 163 34 407
-90 531 -24 24 -77 60 -119 81 -69 34 -84 38 -172 40 -60 2 -111 -2 -136 -10z"/>
<path d="M8940 10468 c-51 -35 -71 -83 -72 -174 -2 -121 41 -184 127 -184 86
0 158 84 158 185 -1 146 -115 239 -213 173z"/>
<path d="M7302 10454 c-63 -32 -98 -112 -89 -201 7 -69 39 -117 95 -145 41
-19 46 -20 76 -6 83 40 126 102 126 180 -1 120 -118 217 -208 172z"/>
<path d="M5799 10262 c-26 -23 -33 -38 -37 -80 -3 -38 0 -58 12 -77 23 -35 35
-28 55 30 10 31 23 51 33 53 39 7 116 -115 187 -294 48 -121 102 -158 117 -80
10 57 -70 260 -148 374 -68 99 -157 129 -219 74z"/>
<path d="M9561 10106 c-17 -31 -45 -81 -62 -112 -17 -30 -29 -57 -26 -60 8 -8
80 32 103 58 35 38 55 87 52 126 -5 58 -30 53 -67 -12z"/>
<path d="M6692 10138 c-16 -16 -15 -81 2 -121 26 -62 111 -117 184 -117 36 0
26 22 -39 85 -37 36 -71 81 -85 113 -24 52 -40 62 -62 40z"/>
<path d="M7991 9835 c-57 -65 -88 -222 -60 -306 38 -114 160 -162 249 -99 34
24 64 75 56 95 -3 10 -14 11 -40 5 -52 -11 -122 -1 -143 22 -25 28 -29 137 -9
217 9 34 16 71 16 82 0 31 -35 23 -69 -16z"/>
<path d="M7870 9138 c-83 -12 -200 -51 -270 -91 -125 -70 -242 -228 -270 -364
-29 -137 11 -284 97 -364 61 -56 104 -72 193 -72 86 1 155 21 302 90 118 55
142 55 303 -4 163 -60 249 -77 364 -70 167 9 272 65 326 172 25 51 30 71 29
135 0 148 -71 298 -183 387 -107 85 -277 149 -471 178 -104 16 -318 18 -420 3z"/>
</g>
</svg>
