<?xml version="1.0" standalone="no"?>
<!DOCTYPE svg PUBLIC "-//W3C//DTD SVG 20010904//EN"
 "http://www.w3.org/TR/2001/REC-SVG-20010904/DTD/svg10.dtd">
<svg version="1.0" xmlns="http://www.w3.org/2000/svg"
 width="1600.000000pt" height="1600.000000pt" viewBox="0 0 1600.000000 1600.000000"
 preserveAspectRatio="xMidYMid meet">

<g transform="translate(0.000000,1600.000000) scale(0.100000,-0.100000)"
fill="#000000" stroke="none">
<path d="M7715 14573 c-283 -37 -585 -166 -840 -362 -219 -167 -496 -516 -715
-901 -82 -143 -85 -147 -260 -320 -183 -181 -260 -280 -310 -399 -24 -60 -24
-97 0 -341 14 -136 7 -290 -19 -415 -26 -124 -87 -405 -106 -490 -54 -233
-205 -675 -284 -830 -28 -55 -51 -105 -51 -112 0 -8 -9 -9 -32 -2 -44 12 -134
11 -183 -2 -62 -17 -141 -104 -202 -224 -53 -103 -103 -233 -103 -264 0 -16
-11 -19 -83 -23 -70 -4 -96 -10 -159 -40 -313 -149 -609 -473 -1253 -1373
-184 -258 -562 -824 -697 -1045 -559 -913 -884 -1669 -990 -2305 -20 -120 -23
-175 -23 -385 0 -219 2 -256 23 -348 48 -212 112 -365 224 -533 78 -119 229
-270 329 -332 456 -283 1135 -127 2004 458 295 198 480 337 634 475 62 56 110
94 107 84 -107 -348 -251 -1080 -320 -1629 -75 -593 -82 -859 -25 -916 52 -52
80 36 94 296 28 517 160 1382 300 1960 57 235 96 358 153 478 44 93 45 100 31
125 -10 19 -24 28 -47 30 -27 3 -39 -4 -84 -53 -134 -143 -585 -521 -743 -622
-38 -25 -149 -96 -245 -158 -313 -201 -537 -319 -769 -404 -542 -199 -929
-149 -1197 154 -155 176 -253 369 -306 606 -21 93 -23 129 -23 339 0 201 4
254 24 365 129 730 540 1612 1256 2700 326 496 765 1104 1023 1415 111 135
327 351 417 418 198 148 312 165 536 79 55 -21 70 -24 84 -14 38 28 -36 103
-141 143 -53 20 -55 11 32 189 83 168 126 226 183 244 39 12 52 11 135 -8 178
-44 361 -151 531 -312 146 -139 241 -295 273 -447 l17 -82 -25 -47 c-14 -25
-57 -94 -95 -152 -95 -143 -123 -193 -117 -211 3 -8 18 -34 34 -59 33 -53 38
-130 12 -208 -8 -26 -114 -248 -234 -493 -120 -245 -236 -490 -258 -545 -98
-245 -154 -470 -247 -999 -88 -501 -140 -674 -305 -1011 -146 -299 -287 -510
-489 -734 -164 -179 -187 -221 -122 -221 171 0 556 493 785 1007 121 271 189
511 261 933 82 475 144 731 230 945 88 220 98 237 172 297 101 82 153 115 266
168 284 135 691 203 1027 171 152 -15 518 -60 542 -67 15 -4 5 -20 -50 -82
-188 -215 -616 -815 -861 -1211 -273 -439 -512 -917 -567 -1132 -20 -78 -12
-120 28 -154 43 -37 70 -32 248 45 221 95 281 113 900 279 80 22 154 43 164
47 16 6 18 4 12 -12 -96 -237 -161 -475 -290 -1059 -201 -911 -361 -1806 -441
-2475 -25 -211 -45 -509 -36 -533 20 -53 8 -52 525 -54 265 -1 801 -4 1191 -7
682 -4 842 1 871 25 18 15 18 63 -1 235 -13 118 -15 425 -18 1992 -1 1018 1
1852 4 1852 9 0 225 -165 314 -240 44 -37 130 -114 190 -170 61 -56 175 -157
255 -223 80 -67 187 -156 239 -199 103 -86 135 -96 184 -58 50 40 69 242 69
750 0 380 -10 573 -42 872 -26 236 -96 700 -117 773 -5 18 -4 18 18 3 13 -8
107 -64 209 -123 997 -582 1239 -749 1458 -1010 272 -324 500 -871 596 -1430
63 -370 80 -741 73 -1649 -3 -480 -10 -759 -22 -946 -18 -283 -16 -521 5 -559
12 -23 12 -23 30 -5 34 36 74 203 90 379 29 332 35 560 35 1325 0 827 -5 959
-46 1290 -75 605 -298 1215 -586 1601 -66 88 -229 256 -343 351 -168 142 -649
446 -1255 793 -466 267 -683 480 -780 766 -44 129 -95 481 -95 659 l0 65 81
69 c202 172 421 481 554 783 61 138 148 402 171 518 10 50 19 91 20 93 0 1 25
-10 55 -25 110 -58 250 -29 358 72 93 87 153 213 187 391 46 245 -30 569 -171
731 -41 47 -45 56 -45 105 0 52 -15 201 -25 245 -4 19 2 24 52 38 88 26 94 33
89 129 -12 204 -144 595 -338 996 -356 738 -787 1162 -1264 1245 -154 27 -292
13 -401 -40 l-52 -26 -47 36 c-134 102 -376 183 -657 220 -108 14 -287 18
-362 8z m1270 -1758 c39 -110 97 -263 129 -340 32 -77 79 -200 104 -273 47
-132 47 -132 92 -155 42 -20 58 -22 238 -22 l192 0 20 -51 c10 -29 65 -206
120 -395 56 -189 108 -356 116 -371 17 -32 51 -58 78 -58 10 0 50 9 87 20 79
24 83 29 109 139 34 142 102 279 147 300 30 14 113 14 147 1 40 -15 113 -87
145 -144 76 -133 118 -337 100 -493 -29 -266 -150 -443 -303 -443 -56 0 -86
24 -150 119 -26 39 -54 71 -62 71 -29 0 -50 -59 -68 -184 -71 -511 -361 -1080
-706 -1383 -216 -191 -506 -335 -800 -399 -128 -28 -428 -26 -564 4 -207 46
-399 123 -546 219 -311 204 -541 508 -713 944 -109 275 -237 697 -281 928 -25
129 -71 460 -65 465 43 35 406 203 624 289 278 109 663 237 833 277 76 18 83
32 70 150 -12 111 -17 875 -5 886 23 23 724 108 826 100 10 -1 40 -72 86 -201z
m-2545 133 c0 -34 -79 -146 -226 -323 -180 -217 -227 -289 -259 -397 -22 -78
-10 -118 68 -215 202 -253 250 -338 268 -475 26 -192 -53 -442 -212 -665 -90
-127 -109 -172 -84 -196 50 -50 196 116 305 346 26 55 49 96 52 91 3 -5 9 -27
13 -49 4 -22 20 -82 37 -133 l29 -93 -22 -46 c-33 -68 -129 -174 -221 -246
-145 -111 -192 -163 -223 -245 -15 -41 -36 -104 -46 -140 -10 -37 -30 -108
-45 -158 l-27 -92 -101 102 c-131 131 -253 222 -394 293 -121 61 -120 58 -87
123 56 111 225 607 285 835 32 124 118 529 136 635 16 101 17 313 3 416 -22
151 -22 199 -1 247 29 65 93 157 157 224 l55 58 -29 -66 c-16 -36 -32 -89 -36
-117 -7 -50 -6 -52 17 -52 25 0 129 57 207 114 161 116 350 236 374 236 4 0 7
-6 7 -12z m102 -2387 c21 -58 73 -206 114 -329 94 -283 161 -453 242 -611 249
-492 619 -811 1096 -947 50 -15 93 -28 94 -30 7 -5 -59 -120 -89 -157 -17 -21
-51 -51 -76 -68 -43 -30 -47 -31 -84 -19 -63 21 -159 8 -244 -34 -40 -20 -86
-36 -103 -36 -17 0 -113 11 -214 25 -267 37 -554 65 -663 65 -289 0 -650 -82
-900 -204 -71 -35 -131 -63 -131 -62 -1 0 53 115 121 253 137 284 155 330 162
423 6 75 -7 132 -42 184 l-25 36 64 86 c99 134 158 237 163 288 7 57 -18 168
-62 275 l-34 84 51 166 c28 91 57 190 65 218 18 68 50 143 71 167 9 10 53 46
96 79 92 70 205 183 244 244 32 50 28 54 84 -96z m2853 -2481 c-4 -107 -13
-267 -21 -355 -28 -308 -29 -323 -9 -345 35 -38 85 -21 108 37 27 69 57 318
57 475 l0 77 127 -122 c278 -267 288 -278 307 -337 20 -65 53 -251 95 -550 67
-473 85 -756 79 -1287 -2 -226 -8 -405 -13 -414 -8 -14 -37 6 -180 123 -93 77
-235 200 -315 273 -237 218 -373 326 -477 378 -55 28 -93 68 -93 99 0 10 17
53 39 96 48 95 154 362 215 540 57 166 80 271 66 306 -9 26 -33 33 -57 18 -16
-10 -202 -396 -280 -582 -82 -197 -120 -309 -132 -393 -8 -59 -16 -74 -67
-139 -31 -40 -125 -141 -208 -224 -207 -206 -326 -284 -510 -331 -83 -21 -241
-14 -320 15 -249 91 -426 349 -414 607 3 75 6 83 40 128 46 59 68 107 124 273
53 158 64 221 40 230 -27 11 -47 -16 -109 -146 -58 -123 -138 -265 -184 -326
-13 -17 -49 -45 -81 -62 -64 -34 -284 -95 -407 -112 -162 -23 -481 -116 -673
-196 -58 -24 -106 -44 -108 -44 -22 0 207 489 343 728 209 371 531 854 891
1337 184 245 357 396 490 426 46 11 55 11 69 -4 23 -22 28 -116 14 -219 -22
-151 -92 -530 -132 -715 -44 -202 -50 -306 -17 -327 23 -14 60 21 93 88 44 91
122 434 166 731 13 83 24 152 25 154 2 2 22 -13 44 -32 115 -98 254 -142 430
-134 137 5 217 29 381 113 155 79 277 171 419 313 l125 126 13 -50 c9 -37 11
-101 7 -245z"/>
<path d="M9030 12009 c-82 -21 -234 -90 -308 -140 -201 -137 -359 -328 -392
-475 -26 -114 64 -191 156 -135 17 10 57 56 89 102 74 106 182 212 287 282 97
65 175 98 278 121 123 28 210 88 210 144 0 30 -41 74 -93 100 -55 28 -124 28
-227 1z"/>
<path d="M10486 11485 c-48 -17 -77 -44 -109 -104 -38 -68 -57 -153 -57 -248
0 -92 16 -145 50 -163 30 -16 52 -6 110 51 96 94 127 46 74 -114 -21 -62 -23
-81 -14 -92 20 -24 51 -17 85 19 38 40 60 109 59 186 -2 132 -98 194 -208 135
l-49 -26 6 58 c8 73 30 137 63 181 24 31 30 33 73 30 43 -3 46 -1 49 23 6 50
-67 86 -132 64z"/>
<path d="M8900 11428 c-118 -42 -232 -134 -280 -228 -31 -60 -51 -146 -48
-202 3 -45 6 -53 23 -53 15 0 26 18 51 87 53 141 120 221 232 274 59 28 70 27
52 -5 -15 -28 -15 -100 -1 -144 15 -44 85 -110 135 -127 21 -7 66 -10 102 -8
77 5 132 39 180 109 28 42 32 45 49 33 44 -33 73 -4 59 58 -10 50 -119 152
-201 190 -61 29 -79 32 -178 35 -94 3 -119 0 -175 -19z"/>
<path d="M6865 11405 c-19 -18 -25 -35 -25 -66 0 -38 6 -48 48 -89 71 -69 316
-200 374 -200 7 0 -11 -14 -40 -31 -119 -68 -193 -186 -214 -340 -13 -97 -7
-139 21 -139 26 0 35 14 66 110 52 158 103 232 189 271 63 29 77 26 65 -13
-32 -115 11 -228 109 -285 91 -54 213 -32 291 50 13 14 29 23 37 20 21 -8 44
16 44 46 0 53 -98 170 -194 234 l-39 26 39 6 c100 15 148 37 202 90 43 43 52
58 52 87 0 74 -68 99 -285 103 -180 3 -250 15 -401 70 -233 86 -295 95 -339
50z"/>
<path d="M8187 10283 c-53 -59 -70 -207 -31 -273 44 -76 125 -99 226 -64 62
21 90 52 86 95 -3 29 -7 34 -32 37 -15 2 -50 -6 -76 -17 -61 -26 -82 -26 -106
0 -15 17 -18 33 -16 83 8 152 8 151 -14 154 -11 2 -28 -5 -37 -15z"/>
<path d="M8725 9625 c-173 -37 -325 -139 -398 -266 -41 -73 -46 -130 -12 -143
25 -9 43 4 76 55 66 103 191 189 325 223 36 9 104 16 160 16 105 0 146 12 152
44 5 25 -35 64 -77 76 -49 13 -153 11 -226 -5z"/>
<path d="M11246 4067 c-14 -10 -18 -57 -31 -317 -22 -450 -52 -938 -80 -1308
-38 -499 -42 -595 -21 -626 28 -43 79 -29 99 27 16 45 70 753 92 1217 18 361
20 877 4 950 -12 56 -35 77 -63 57z"/>
</g>
</svg>
