<?xml version="1.0" standalone="no"?>
<!DOCTYPE svg PUBLIC "-//W3C//DTD SVG 20010904//EN"
 "http://www.w3.org/TR/2001/REC-SVG-20010904/DTD/svg10.dtd">
<svg version="1.0" xmlns="http://www.w3.org/2000/svg"
 width="1600.000000pt" height="1600.000000pt" viewBox="0 0 1600.000000 1600.000000"
 preserveAspectRatio="xMidYMid meet">

<g transform="translate(0.000000,1600.000000) scale(0.100000,-0.100000)"
fill="#000000" stroke="none">
<path d="M7485 14909 c-542 -52 -1113 -325 -1534 -734 -166 -161 -272 -280
-406 -460 -433 -578 -765 -1214 -1010 -1936 -240 -706 -369 -1321 -479 -2289
-101 -883 -125 -1299 -92 -1609 15 -143 14 -141 131 -190 81 -34 313 -92 465
-116 58 -10 111 -19 118 -21 9 -3 -9 -29 -48 -72 -221 -240 -486 -659 -665
-1051 -255 -559 -468 -1294 -610 -2106 -33 -192 -31 -185 -64 -185 -15 0 -51
-7 -81 -16 -64 -19 -54 -30 37 -40 68 -7 71 -12 54 -74 -6 -21 -14 -26 -60
-32 -29 -3 -60 -13 -69 -21 -13 -14 -9 -17 38 -31 30 -9 59 -16 65 -16 8 0 4
-53 -11 -178 -77 -611 -93 -1170 -44 -1496 35 -229 85 -341 101 -226 4 25 10
198 13 385 12 583 31 907 77 1295 12 96 25 179 29 183 9 10 159 -14 340 -53
285 -63 565 -162 835 -297 83 -41 151 -76 152 -77 4 -4 -132 -357 -225 -583
-51 -121 -130 -319 -178 -440 -47 -120 -101 -258 -121 -308 -20 -49 -36 -106
-37 -125 -1 -31 2 -35 26 -38 21 -3 32 5 56 40 34 50 98 174 137 268 15 36 94
224 177 418 206 486 273 667 474 1267 217 651 264 817 369 1290 102 465 130
606 195 990 48 280 99 543 234 1195 106 516 173 732 282 907 77 124 129 154
201 115 43 -23 158 -135 144 -140 -39 -13 -142 -96 -213 -171 -126 -134 -200
-273 -165 -309 23 -22 40 -10 99 70 152 205 324 338 438 338 33 0 56 -8 86
-28 l41 -28 -79 -78 c-79 -79 -177 -214 -212 -293 -15 -35 -17 -45 -6 -58 7
-8 18 -15 26 -15 7 0 46 37 86 82 127 144 262 274 305 297 71 36 97 30 162
-37 64 -67 105 -97 121 -87 16 10 12 87 -7 123 -25 46 -92 113 -130 128 -42
18 -100 18 -152 -1 -34 -12 -41 -12 -41 0 0 23 -50 75 -93 97 -34 17 -54 20
-113 16 l-72 -5 -11 38 c-15 51 -93 129 -163 163 -49 24 -67 27 -125 24 l-68
-3 -57 110 c-62 119 -208 454 -208 477 0 20 -21 38 -43 38 -11 0 -40 -19 -64
-41 -43 -39 -48 -41 -97 -37 -73 6 -140 43 -215 119 -146 146 -241 380 -241
593 0 158 36 278 105 355 30 33 44 41 73 41 58 0 122 -38 204 -122 89 -91 118
-99 161 -48 46 54 80 184 167 645 77 407 199 903 213 865 3 -8 13 -40 23 -70
23 -76 50 -127 73 -140 25 -13 296 -13 631 0 290 11 441 21 860 55 332 28 740
50 1190 65 402 13 519 20 557 31 43 14 63 60 82 197 l16 114 103 -299 c123
-356 158 -474 263 -868 43 -165 91 -335 106 -379 46 -132 106 -171 161 -104
85 103 174 158 269 166 75 6 119 -5 159 -40 125 -110 122 -361 -7 -622 -112
-226 -267 -338 -396 -287 -80 31 -97 10 -148 -189 -18 -69 -49 -170 -70 -225
-43 -115 -171 -385 -183 -385 -4 0 -25 9 -47 20 -110 56 -232 -3 -301 -147
-22 -47 -28 -53 -56 -53 -90 0 -185 -66 -212 -148 -8 -26 -18 -66 -22 -89 l-7
-43 -46 0 c-25 0 -63 -5 -84 -11 -76 -21 -138 -104 -123 -165 9 -34 34 -30 79
13 37 37 40 38 115 38 65 0 87 -5 142 -31 92 -44 157 -99 248 -211 141 -173
192 -208 192 -133 0 131 -177 352 -353 440 -44 22 -86 40 -93 40 -19 0 -18 4
17 70 41 78 68 101 123 107 37 5 57 0 101 -22 77 -40 172 -121 241 -206 103
-129 189 -213 209 -205 14 5 17 14 12 47 -18 132 -217 369 -383 456 l-51 27
34 48 c98 135 160 122 367 -81 159 -156 378 -455 482 -658 135 -265 160 -568
98 -1218 -8 -88 -28 -304 -45 -480 -18 -185 -33 -413 -36 -540 l-5 -220 36
-180 c19 -99 65 -359 101 -578 36 -219 101 -591 145 -825 43 -235 115 -625
160 -867 87 -475 122 -630 199 -884 53 -175 74 -216 112 -216 42 0 37 62 -20
268 -28 100 -71 290 -95 422 -84 450 -196 1065 -196 1074 0 26 551 147 848
186 128 17 479 41 487 34 6 -7 -12 -432 -30 -689 -9 -118 -31 -375 -50 -570
-19 -195 -42 -449 -50 -564 -14 -189 -14 -210 0 -232 8 -13 20 -24 25 -24 46
0 123 371 174 840 35 312 63 711 73 1026 l6 212 46 6 c26 3 57 13 69 22 22 15
22 17 6 35 -10 11 -38 25 -63 33 l-46 13 -3 72 -3 71 43 0 c56 0 90 10 85 24
-2 6 -30 20 -63 30 -32 11 -60 20 -62 21 -2 2 -7 121 -12 266 -22 616 -91
1171 -206 1659 -71 298 -180 646 -271 859 -105 248 -274 541 -396 686 l-50 60
74 2 c284 9 554 71 577 134 23 62 -3 641 -48 1078 -60 570 -273 1774 -425
2396 -108 442 -300 1113 -421 1475 -185 551 -452 1102 -684 1413 -314 422
-670 651 -1046 674 -174 10 -381 -28 -490 -91 l-41 -23 -54 34 c-338 218 -969
350 -1454 302z m-1100 -1613 c41 -17 75 -68 75 -113 0 -32 -227 -503 -273
-565 -26 -36 -95 -78 -126 -78 -82 0 -138 79 -128 178 7 66 84 227 177 371 85
130 124 176 173 200 50 25 57 25 102 7z m3206 -31 c46 -30 110 -126 199 -297
92 -178 130 -275 130 -333 0 -94 -54 -155 -138 -155 -111 0 -152 56 -307 419
-106 249 -114 301 -54 360 47 47 105 49 170 6z m-1115 -19 c66 -30 105 -78
164 -201 82 -171 157 -434 145 -508 -13 -89 -101 -197 -175 -217 -98 -26 -196
36 -237 150 -13 38 -22 49 -33 44 -86 -37 -140 -39 -202 -8 -75 38 -128 161
-131 299 -2 120 38 186 124 204 32 6 35 10 50 74 22 88 52 131 113 162 63 31
116 32 182 1z m-1407 -80 c46 -24 98 -83 117 -132 l17 -44 59 0 c116 0 189
-71 196 -192 5 -79 -8 -125 -54 -194 -60 -90 -159 -125 -255 -90 l-36 13 -26
-53 c-56 -113 -137 -173 -233 -174 -102 0 -183 71 -206 182 -22 105 21 366 85
509 31 71 120 165 172 185 47 17 120 12 164 -10z m1906 -159 c33 -35 82 -101
110 -147 42 -71 50 -91 53 -146 4 -60 3 -65 -26 -94 -51 -51 -133 -37 -186 32
-30 41 -103 204 -121 273 -16 64 -10 100 23 125 46 37 80 27 147 -43z m-3089
-5019 c-80 -280 -282 -1222 -361 -1688 -93 -546 -240 -1248 -331 -1575 -49
-176 -322 -1012 -345 -1057 -8 -16 -17 -12 -77 29 -175 120 -663 325 -937 393
-50 13 -51 13 -63 64 -23 98 -109 168 -208 170 -35 0 -54 5 -54 12 0 23 81
419 122 594 315 1363 858 2382 1497 2811 57 39 125 81 152 95 l49 24 0 -32 c0
-55 18 -102 55 -145 46 -54 105 -77 185 -71 80 6 135 43 173 117 39 78 34 153
-16 224 -10 16 -17 30 -15 32 4 4 119 22 157 24 20 1 22 -3 17 -21z m4784
-149 c36 -5 98 -19 138 -31 l73 -21 -30 -31 c-79 -82 -82 -205 -6 -293 46 -54
105 -77 185 -71 84 6 135 42 176 126 l31 64 80 -79 c231 -227 443 -601 597
-1053 33 -99 126 -415 126 -431 0 -4 -13 -10 -29 -14 -41 -9 -110 -72 -132
-119 -34 -75 -21 -165 33 -230 41 -50 98 -76 169 -76 l56 0 27 -162 c64 -397
116 -991 116 -1331 l0 -89 -49 7 c-99 13 -523 -29 -750 -76 -198 -40 -470
-122 -562 -169 l-37 -19 -6 31 c-11 58 -7 72 35 101 46 32 89 112 89 166 0 51
-20 106 -52 146 -32 38 -94 75 -126 75 -11 0 -24 6 -29 13 -6 6 -27 116 -47
242 -21 127 -58 339 -82 472 -61 338 -61 380 16 1218 42 451 50 583 50 802 0
332 -34 506 -143 724 l-63 127 40 -5 c23 -2 70 -8 106 -14z m-7005 -3810 c266
-45 593 -167 969 -362 160 -82 191 -106 169 -128 -8 -8 -22 -4 -55 18 -237
163 -732 335 -1157 404 -133 22 -142 25 -137 44 3 11 6 28 6 37 0 20 21 19
205 -13z m8615 -197 l0 -59 -157 -6 c-347 -14 -786 -88 -1058 -179 -66 -21
-125 -42 -132 -44 -7 -3 -16 15 -23 51 -6 31 -10 58 -8 60 9 9 242 78 368 110
279 70 611 114 943 123 l67 2 0 -58z"/>
<path d="M4974 6009 c-52 -12 -121 -71 -145 -123 -50 -109 6 -250 116 -291 66
-26 153 -17 208 21 49 34 97 119 97 172 0 147 -134 254 -276 221z"/>
<path d="M8740 11404 c-132 -35 -308 -152 -409 -274 -86 -104 -111 -169 -71
-190 18 -9 32 0 113 77 161 154 273 229 382 258 114 29 242 15 364 -41 55 -25
305 -198 330 -228 7 -9 19 -16 26 -16 31 0 22 53 -21 127 -125 214 -468 352
-714 287z"/>
<path d="M6720 11309 c-83 -16 -187 -76 -272 -157 -150 -144 -246 -331 -182
-356 23 -9 38 3 86 64 122 158 203 232 307 285 138 69 297 33 477 -109 122
-96 226 -166 246 -166 27 0 22 34 -14 103 -79 147 -283 294 -464 332 -76 16
-117 17 -184 4z"/>
<path d="M8845 10573 c-210 -29 -438 -178 -461 -300 -8 -44 9 -83 37 -83 12 0
44 24 77 58 56 56 155 116 244 148 81 29 174 34 313 18 145 -17 229 -15 251 8
13 13 12 18 -7 42 -62 78 -286 132 -454 109z"/>
<path d="M6595 10540 c-94 -20 -154 -59 -185 -120 -26 -51 -26 -80 -1 -80 11
0 66 16 124 35 68 23 123 35 158 35 151 -1 343 -82 473 -201 87 -79 119 -87
124 -33 4 42 -63 140 -136 199 -69 56 -214 128 -300 150 -77 19 -203 27 -257
15z"/>
<path d="M10542 10215 c-58 -25 -140 -121 -187 -220 -53 -108 -64 -164 -42
-199 25 -37 49 -40 118 -11 54 23 64 25 76 12 24 -24 7 -70 -63 -164 -35 -48
-64 -91 -64 -94 0 -17 41 -19 79 -3 82 33 161 152 161 243 0 79 -68 137 -147
128 -41 -4 -43 -3 -37 17 12 43 71 129 117 172 44 42 51 45 95 42 41 -3 47 0
50 18 4 30 -50 74 -91 74 -18 -1 -47 -7 -65 -15z"/>
<path d="M5442 10015 c-38 -32 -51 -80 -28 -103 14 -15 18 -14 46 13 26 25 34
27 57 19 50 -17 115 -126 138 -231 6 -32 6 -33 -27 -33 -48 0 -94 -32 -108
-75 -24 -73 12 -187 80 -255 73 -73 160 -89 117 -22 -37 55 -97 191 -97 217 0
26 1 26 53 20 28 -3 57 -2 63 2 52 37 42 155 -24 296 -70 150 -191 218 -270
152z"/>
<path d="M7698 9571 c-60 -71 -126 -296 -112 -380 15 -89 55 -149 113 -166 95
-29 250 37 297 127 8 15 14 38 14 52 0 39 -36 43 -111 11 -134 -56 -147 -61
-161 -47 -24 24 -21 131 7 249 31 129 30 177 -1 181 -14 2 -30 -8 -46 -27z"/>
<path d="M8687 8829 c-9 -6 -30 -36 -46 -67 -80 -158 -265 -287 -500 -349
-130 -34 -327 -36 -444 -5 -170 46 -291 139 -380 290 -26 45 -53 84 -58 88 -6
3 -21 3 -34 0 -47 -12 -43 -77 12 -194 171 -364 776 -462 1223 -198 219 130
376 348 305 426 -20 22 -50 25 -78 9z"/>
<path d="M8797 7956 c-23 -24 -10 -51 48 -101 30 -25 67 -63 84 -84 l30 -38
-147 -61 c-244 -101 -420 -140 -672 -149 -278 -10 -498 27 -792 134 -54 19
-98 40 -98 45 0 6 16 37 36 69 36 59 80 101 121 113 49 15 25 76 -31 76 -107
-1 -223 -156 -315 -422 -86 -250 -127 -460 -156 -788 -21 -238 -33 -324 -62
-465 -64 -307 -161 -510 -290 -606 -72 -54 -107 -73 -229 -123 -61 -26 -121
-57 -133 -70 -14 -15 -25 -45 -31 -82 -12 -86 -20 -115 -128 -510 -187 -675
-304 -1217 -441 -2044 -68 -407 -88 -552 -100 -737 -11 -176 9 -298 48 -291
25 5 41 71 52 218 18 254 52 478 160 1070 148 815 244 1237 429 1889 44 156
85 311 91 345 l12 62 101 44 c304 129 435 284 535 631 51 177 99 471 102 614
0 32 7 15 34 -80 91 -326 201 -580 348 -802 188 -285 371 -369 627 -291 295
91 614 405 907 893 110 183 273 530 273 582 0 9 3 14 6 11 3 -3 14 -118 25
-254 23 -302 50 -497 88 -646 16 -62 33 -122 37 -132 5 -14 4 -17 -4 -12 -7 4
-36 2 -66 -4 -162 -33 -230 -226 -124 -354 82 -100 251 -102 333 -4 14 17 27
29 29 27 3 -2 32 -42 65 -89 l62 -85 -8 -190 c-21 -515 9 -2502 48 -3115 18
-293 71 -607 105 -617 17 -6 25 387 14 652 -42 991 -65 2676 -42 3105 11 201
11 203 -67 309 -211 291 -304 578 -341 1056 -21 280 -42 472 -61 573 -55 285
-144 468 -300 618 -108 103 -181 141 -212 110z m-327 -1230 c-22 -58 -107
-218 -157 -296 -107 -163 -220 -247 -348 -258 -59 -4 -71 -2 -129 27 -79 38
-128 92 -205 221 -31 52 -57 97 -59 101 -1 3 28 -1 65 -9 123 -26 306 2 509
77 85 31 265 118 299 145 28 22 36 20 25 -8z"/>
<path d="M6214 4179 c-52 -12 -121 -71 -145 -123 -50 -109 6 -250 116 -291 66
-26 153 -17 208 21 49 34 97 119 97 172 0 147 -134 254 -276 221z"/>
<path d="M8794 4139 c-52 -12 -121 -71 -145 -123 -50 -109 6 -250 116 -291 66
-26 153 -17 208 21 49 34 97 119 97 172 0 147 -134 254 -276 221z"/>
<path d="M7444 2289 c-52 -12 -121 -71 -145 -123 -50 -109 6 -250 116 -291 66
-26 153 -17 208 21 49 34 97 119 97 172 0 147 -134 254 -276 221z"/>
</g>
</svg>
