<?xml version="1.0" standalone="no"?>
<!DOCTYPE svg PUBLIC "-//W3C//DTD SVG 20010904//EN"
 "http://www.w3.org/TR/2001/REC-SVG-20010904/DTD/svg10.dtd">
<svg version="1.0" xmlns="http://www.w3.org/2000/svg"
 width="1600.000000pt" height="1600.000000pt" viewBox="0 0 1600.000000 1600.000000"
 preserveAspectRatio="xMidYMid meet">

<g transform="translate(0.000000,1600.000000) scale(0.100000,-0.100000)"
fill="#000000" stroke="none">
<path d="M7685 14354 c-483 -50 -947 -236 -1305 -522 -180 -144 -358 -339
-475 -521 -62 -97 -155 -292 -195 -411 -120 -359 -200 -936 -200 -1437 0 -110
1 -113 26 -129 20 -14 48 -17 135 -16 60 0 109 -2 109 -4 0 -3 7 -39 15 -80
15 -71 15 -76 -3 -102 -135 -196 -60 -684 139 -897 76 -81 149 -119 230 -120
44 0 64 5 88 23 36 26 33 31 56 -88 25 -129 91 -377 136 -508 57 -165 125
-303 223 -450 177 -266 383 -455 643 -589 l86 -44 -2 -222 -2 -222 -39 -100
-40 -100 -44 -1 c-100 -3 -282 -128 -367 -253 l-34 -50 -68 -1 c-164 0 -949
-223 -1367 -387 -533 -209 -902 -482 -1247 -923 -257 -329 -486 -853 -709
-1628 -97 -338 -314 -1221 -385 -1572 -60 -298 -144 -850 -156 -1027 -7 -101
1 -123 42 -123 48 0 52 17 125 485 69 446 131 768 225 1158 309 1284 539 1970
810 2416 190 314 505 640 815 843 243 160 628 319 1118 464 186 55 723 193
720 184 -2 -3 -31 -59 -64 -125 -126 -245 -283 -655 -472 -1230 -83 -253 -107
-311 -144 -354 -67 -78 -153 -268 -194 -428 l-18 -72 -46 -11 c-98 -24 -205
-86 -295 -171 -113 -108 -196 -234 -333 -506 -178 -354 -288 -612 -476 -1114
-52 -140 -133 -353 -179 -474 -131 -340 -240 -694 -277 -899 -23 -126 -25
-177 -8 -194 16 -16 53 -15 66 1 6 7 31 96 56 198 52 215 160 550 258 804 39
99 132 344 208 545 198 525 316 799 489 1135 112 219 167 301 265 401 87 87
140 119 254 154 67 20 80 21 165 11 51 -6 144 -22 207 -36 182 -41 230 -37
216 18 -4 17 -19 30 -48 42 -66 26 -256 72 -330 80 -38 4 -68 11 -68 16 0 22
74 230 108 303 76 160 158 218 323 224 150 6 298 -29 590 -143 265 -103 360
-164 375 -241 13 -70 -29 -230 -110 -423 -23 -53 -25 -66 -14 -81 7 -9 38 -51
69 -91 107 -140 135 -224 145 -434 15 -301 -73 -901 -206 -1420 -74 -287 -230
-802 -311 -1023 -23 -65 -24 -76 -3 -96 14 -14 82 -16 607 -15 884 0 1634 14
1652 29 20 16 19 56 -4 208 -11 70 -25 213 -31 317 -14 252 -28 402 -110 1165
-38 355 -74 708 -80 785 -14 183 -24 859 -13 907 l8 38 75 -33 c93 -41 242
-126 470 -270 296 -185 332 -207 373 -218 77 -20 142 17 174 99 15 40 18 77
17 262 -1 236 -19 401 -75 683 -87 440 -273 994 -491 1462 -44 94 -82 175 -84
182 -4 8 5 9 33 2 930 -220 1814 -557 2193 -837 119 -88 207 -169 300 -277
305 -355 507 -760 753 -1510 178 -542 343 -1247 497 -2120 181 -1027 174 -995
220 -995 61 0 65 84 15 372 -188 1106 -244 1391 -387 1988 -190 796 -448 1504
-707 1942 -124 211 -320 454 -475 590 -224 196 -578 387 -1056 568 -356 135
-770 263 -1161 361 -108 27 -228 64 -267 82 -61 28 -76 40 -111 93 -94 142
-199 222 -300 231 -50 5 -60 9 -65 27 -4 20 -21 269 -30 458 l-4 88 90 51
c271 155 532 459 678 789 132 299 207 558 265 913 l6 37 29 -15 c100 -52 244
27 344 189 169 273 204 655 78 839 -34 49 -37 68 -25 190 l6 67 53 0 c87 0 94
13 94 168 0 200 -31 493 -86 802 -129 731 -430 1217 -890 1435 -252 120 -487
152 -667 91 l-67 -22 -32 34 c-45 46 -188 150 -273 199 -188 108 -364 152
-625 158 -96 1 -193 1 -215 -1z m734 -1529 c191 -19 380 -39 421 -45 41 -5 78
-10 83 -10 4 0 7 -8 7 -17 1 -40 178 -733 193 -757 10 -14 43 -39 75 -55 l57
-30 -81 -1 c-44 0 -107 -5 -140 -11 -273 -48 -570 -251 -615 -420 -22 -84 37
-157 114 -142 15 3 62 37 105 76 200 182 356 247 589 247 127 0 175 11 215 47
20 18 24 64 8 92 -7 13 40 -3 169 -58 l179 -75 21 -96 c38 -171 54 -381 55
-705 1 -484 -37 -771 -155 -1163 -160 -534 -411 -903 -755 -1108 -82 -49 -280
-131 -291 -120 -2 2 -1 26 3 53 l6 50 43 -5 c57 -6 109 13 158 57 74 67 88
150 38 236 -34 60 -171 193 -268 261 -214 151 -385 187 -539 115 -131 -61
-237 -200 -401 -526 -53 -104 -97 -192 -99 -194 -14 -15 -259 89 -359 151
-320 201 -581 549 -710 949 -128 398 -214 973 -232 1561 -5 182 -4 218 8 222
8 2 130 32 272 66 l258 62 57 -30 c62 -33 251 -90 402 -122 209 -43 489 -47
561 -8 85 47 93 154 16 212 -26 19 -46 21 -240 27 -152 4 -233 11 -287 24 -63
15 -71 19 -50 26 461 139 711 233 743 280 20 28 22 160 7 409 -5 85 -13 238
-16 339 -7 177 -7 184 11 177 11 -4 174 -22 364 -41z m1876 -1628 c60 -59 79
-127 78 -272 -2 -207 -80 -421 -198 -542 -58 -59 -99 -81 -130 -70 -8 3 -25
23 -39 44 -25 38 -26 39 -16 168 5 72 10 219 10 329 0 185 1 201 22 235 30 52
98 121 133 137 57 26 93 18 140 -29z m-4254 -71 c48 -17 101 -59 133 -104 23
-34 26 -50 36 -202 6 -91 17 -225 25 -298 12 -124 12 -138 -5 -200 -21 -74
-49 -107 -84 -96 -135 41 -241 199 -292 438 -9 39 -16 118 -16 176 -1 121 18
201 59 250 42 50 79 59 144 36z m2362 -1986 c126 -47 381 -251 422 -336 21
-44 7 -87 -36 -109 -54 -28 -91 -20 -175 42 -125 89 -177 120 -224 133 -95 26
-185 -16 -265 -123 -58 -77 -195 -350 -202 -403 -5 -38 -8 -41 -113 -98 -124
-67 -160 -98 -144 -124 24 -38 85 -24 276 64 141 65 210 84 303 84 53 0 83 -6
121 -24 69 -32 180 -139 227 -217 43 -74 47 -120 17 -187 -20 -44 -110 -172
-121 -172 -3 0 -9 26 -12 58 -14 164 -103 215 -460 267 -244 35 -318 40 -342
21 -16 -12 -18 -19 -9 -33 16 -26 93 -49 280 -83 340 -61 395 -81 413 -147 23
-83 8 -342 -24 -403 -15 -28 -79 -70 -107 -70 -10 0 -13 24 -13 93 0 83 -3 97
-28 140 -38 65 -121 124 -292 207 -157 77 -184 85 -210 66 -34 -25 -6 -56 114
-126 173 -101 263 -163 286 -193 16 -23 20 -44 20 -110 0 -108 -13 -132 -88
-163 -31 -14 -78 -27 -103 -31 l-46 -6 3 98 c4 85 2 99 -13 109 -44 27 -90
-46 -96 -153 -5 -91 13 -196 64 -371 47 -159 52 -271 16 -338 -34 -65 -82
-112 -185 -185 -115 -82 -210 -180 -265 -272 -44 -75 -115 -237 -151 -347 -13
-38 -25 -68 -28 -68 -2 0 -55 20 -116 44 -150 59 -305 109 -402 131 -44 10
-86 19 -92 21 -9 2 6 38 41 106 129 244 321 698 702 1658 194 489 284 695 445
1021 158 321 247 455 336 510 84 52 171 58 276 19z m14 -416 l44 -25 -64 -68
c-35 -38 -84 -100 -108 -140 l-44 -71 -71 0 c-39 0 -73 3 -77 6 -17 18 137
275 185 309 33 22 86 18 135 -11z m151 -181 c-4 -60 -40 -221 -54 -241 -1 -2
-18 8 -38 22 -20 13 -57 32 -81 42 l-45 17 28 50 c34 63 151 187 176 187 17 0
18 -7 14 -77z m303 -880 c8 -59 13 -112 12 -118 0 -5 -10 -64 -22 -130 -53
-312 -62 -565 -19 -565 27 0 60 117 104 371 26 145 49 279 52 298 4 31 -12
178 -24 224 -13 45 80 0 153 -75 76 -79 144 -189 253 -413 234 -478 431 -1049
529 -1531 78 -382 112 -825 69 -907 -8 -16 -11 -16 -50 4 -22 11 -129 76 -237
143 -384 240 -605 356 -683 358 l-44 0 -17 187 c-10 102 -22 265 -28 361 -10
183 -30 304 -54 336 -13 17 -16 17 -25 4 -23 -34 -33 -93 -37 -226 -6 -172 8
-353 63 -816 l7 -56 -69 -51 c-128 -94 -323 -176 -514 -217 -133 -29 -346 -25
-472 9 -111 29 -247 90 -318 142 l-48 35 25 61 c63 157 63 278 -1 362 -28 37
-118 109 -149 120 -13 4 62 194 136 342 80 161 121 213 234 288 111 74 193
151 231 217 14 25 58 79 98 121 100 106 225 265 273 347 49 84 89 200 98 283
l6 63 100 95 c104 100 251 286 309 389 18 33 35 59 39 56 3 -2 12 -52 20 -111z
m-1616 10 c-50 -127 -243 -607 -359 -889 -149 -367 -242 -575 -352 -796 -80
-160 -72 -152 -172 -162 -42 -4 -53 -2 -49 8 3 7 20 60 37 117 67 217 302 859
388 1059 104 242 215 435 317 548 36 40 185 152 202 152 2 0 -4 -17 -12 -37z
m1038 -500 c-11 -67 -57 -186 -99 -253 -48 -78 -194 -269 -206 -270 -5 0 -8
12 -8 28 0 15 -9 59 -19 97 -11 39 -33 120 -49 182 l-30 111 47 7 c86 13 205
56 236 85 27 26 44 31 116 38 12 2 15 -5 12 -25z"/>
<path d="M8264 11395 c-45 -69 40 -195 121 -180 61 11 65 57 9 103 -18 15 -40
44 -49 65 -19 46 -55 51 -81 12z"/>
<path d="M8847 11330 c-75 -24 -152 -75 -226 -150 -133 -134 -200 -290 -126
-290 17 0 37 20 84 84 72 99 179 201 247 236 36 18 69 26 127 28 42 2 85 1 95
-3 15 -6 13 -9 -10 -21 -15 -8 -39 -35 -54 -60 -25 -42 -26 -52 -22 -128 6
-94 28 -147 82 -194 111 -97 316 -4 319 145 1 97 -84 253 -170 310 -95 63
-232 80 -346 43z"/>
<path d="M7108 11277 c-113 -48 -243 -168 -294 -272 -36 -74 -41 -180 -9 -180
15 0 31 21 63 80 101 190 299 322 429 286 l42 -12 -35 -32 c-90 -84 -45 -289
82 -363 99 -58 216 -12 249 100 22 72 19 105 -16 175 -42 85 -118 160 -204
202 -61 30 -80 34 -160 37 -76 2 -99 -1 -147 -21z"/>
<path d="M8077 10362 c-53 -58 -69 -232 -30 -308 27 -50 63 -75 119 -82 82 -9
174 61 174 131 0 14 -3 28 -7 30 -5 3 -41 -8 -80 -24 -40 -16 -79 -26 -87 -23
-33 13 -45 111 -26 213 5 28 7 58 4 66 -8 21 -47 19 -67 -3z"/>
<path d="M8430 9656 c-210 -45 -435 -168 -592 -325 -87 -87 -111 -129 -91
-160 22 -35 50 -24 135 55 110 103 178 152 295 212 146 75 251 107 348 107 71
0 85 -3 120 -27 83 -57 138 -44 115 26 -32 96 -174 145 -330 112z"/>
<path d="M10175 11088 c-99 -55 -148 -179 -149 -383 -1 -134 12 -175 57 -175
41 0 47 17 47 134 1 222 46 333 148 361 26 7 29 36 6 59 -18 18 -79 21 -109 4z"/>
<path d="M5944 11006 c-50 -22 -73 -106 -31 -114 10 -2 27 4 38 14 15 14 25
16 37 8 31 -18 71 -116 88 -213 21 -126 40 -173 68 -169 16 2 24 15 34 53 23
92 -19 276 -84 361 -44 57 -102 80 -150 60z"/>
<path d="M11559 4106 c-8 -18 -7 -85 5 -257 38 -551 51 -1225 36 -1886 -5
-205 -4 -223 13 -240 18 -17 19 -17 42 9 32 37 42 94 56 322 13 231 7 1101
-10 1381 -25 400 -52 632 -77 673 -19 29 -52 28 -65 -2z"/>
</g>
</svg>
