<?xml version="1.0" standalone="no"?>
<!DOCTYPE svg PUBLIC "-//W3C//DTD SVG 20010904//EN"
 "http://www.w3.org/TR/2001/REC-SVG-20010904/DTD/svg10.dtd">
<svg version="1.0" xmlns="http://www.w3.org/2000/svg"
 width="1600.000000pt" height="1600.000000pt" viewBox="0 0 1600.000000 1600.000000"
 preserveAspectRatio="xMidYMid meet">

<g transform="translate(0.000000,1600.000000) scale(0.100000,-0.100000)"
fill="#000000" stroke="none">
<path d="M7265 14519 c-525 -64 -1027 -311 -1420 -699 -167 -165 -316 -386
-470 -695 -216 -437 -381 -943 -500 -1530 -89 -440 -147 -1038 -175 -1800 -13
-337 -19 -1780 -8 -1791 10 -9 477 -40 848 -55 157 -6 585 -12 953 -12 488 1
667 -2 667 -11 0 -8 -48 -11 -158 -12 -114 0 -191 -6 -282 -22 -736 -130
-1413 -497 -2226 -1209 -176 -154 -503 -474 -665 -650 l-94 -103 -63 20 c-145
46 -236 43 -248 -7 -7 -28 14 -53 45 -53 26 0 181 -50 181 -59 0 -4 -8 -15
-18 -25 -18 -15 -23 -14 -83 13 -85 39 -174 64 -198 56 -23 -7 -34 -35 -25
-59 4 -9 51 -39 105 -67 55 -27 99 -52 99 -55 0 -3 -42 -58 -93 -122 -243
-303 -487 -654 -689 -992 -373 -623 -574 -1075 -708 -1592 -123 -477 -103
-682 83 -870 81 -82 284 -227 353 -254 41 -15 47 -16 60 -2 25 24 4 48 -156
176 -175 140 -230 197 -273 282 -32 64 -32 66 -31 205 1 162 24 287 99 549 90
312 199 579 384 941 213 417 495 870 773 1240 145 193 285 368 299 373 10 4
215 -133 326 -219 111 -85 318 -276 422 -388 193 -211 501 -604 501 -641 0 -6
-31 -48 -68 -93 -92 -110 -278 -353 -389 -507 -319 -445 -440 -683 -409 -805
10 -38 77 -107 149 -153 34 -21 175 -106 312 -187 138 -81 312 -188 388 -237
l137 -90 0 -102 c0 -116 16 -270 30 -297 13 -23 36 -15 44 14 10 41 45 412 56
597 22 367 63 754 126 1170 48 318 86 525 198 1060 137 658 140 680 97 680
-23 0 -37 -17 -46 -51 -6 -25 -9 -26 -43 -18 -90 21 -203 -37 -243 -125 -49
-109 2 -241 113 -290 l48 -21 -107 -116 c-60 -63 -130 -139 -157 -168 -26 -29
-49 -51 -50 -49 -1 2 -28 50 -60 108 -139 251 -340 524 -535 723 -173 177
-313 286 -522 407 l-101 58 145 154 c80 84 183 191 230 237 l85 83 37 -12 c61
-20 148 -9 198 26 75 52 115 164 86 241 -12 32 -28 16 201 201 642 520 1203
813 1785 933 187 39 191 38 199 -8 3 -21 6 -65 6 -98 0 -161 173 -776 302
-1080 177 -415 403 -690 628 -765 97 -33 220 -26 313 17 336 158 579 643 686
1373 29 192 42 337 44 472 l2 118 35 -5 c287 -38 479 -75 673 -131 447 -128
932 -416 1503 -892 153 -127 148 -121 129 -165 -42 -102 9 -233 109 -278 56
-25 141 -25 191 1 l40 21 165 -168 c146 -149 462 -500 482 -538 6 -10 -22 -29
-113 -75 -470 -237 -948 -627 -1202 -983 -32 -45 -62 -83 -65 -84 -4 -1 -44
42 -89 95 -45 53 -137 158 -206 233 l-125 136 -46 173 c-43 161 -65 220 -84
220 -4 0 -14 -4 -22 -10 -30 -19 -15 -104 110 -640 102 -436 131 -570 179
-831 102 -552 183 -1210 211 -1704 20 -360 30 -435 64 -457 47 -32 66 26 66
208 l0 146 51 64 c108 136 413 367 759 575 63 38 153 101 200 140 126 105 249
214 245 218 -2 2 -58 -23 -124 -55 -67 -31 -124 -54 -128 -51 -3 4 -14 30 -24
58 -58 164 -471 776 -803 1189 -42 52 -76 98 -76 102 0 17 377 385 478 466
135 110 347 259 532 375 167 104 411 238 422 231 19 -12 274 -362 400 -549
348 -516 610 -1004 818 -1525 148 -370 199 -556 207 -750 6 -152 -4 -209 -58
-310 -55 -103 -104 -141 -374 -290 -156 -85 -191 -108 -237 -155 -88 -88 55
-69 241 31 240 130 417 273 478 389 55 105 68 165 67 310 -1 159 -24 273 -99
500 -230 698 -677 1526 -1211 2243 -63 84 -114 156 -114 161 0 5 39 26 87 47
90 40 153 85 153 110 0 18 -32 34 -67 34 -15 0 -66 -16 -113 -36 -149 -62
-141 -60 -162 -34 -10 12 -18 25 -18 29 0 4 25 15 55 25 30 11 69 31 87 46 28
24 31 30 19 44 -19 22 -103 21 -180 -3 l-61 -19 -93 112 c-543 646 -1199 1232
-1807 1613 -340 213 -669 350 -1042 433 -252 56 -634 101 -780 92 -39 -2 -68
0 -68 6 0 13 590 21 1255 17 308 -2 634 0 725 3 l165 7 12 49 c41 165 78 690
104 1451 14 409 8 752 -21 1245 -22 394 -47 610 -89 805 -53 240 -159 643
-209 792 -51 153 -230 579 -309 738 -103 205 -260 462 -382 625 -78 105 -240
270 -343 350 -226 175 -495 253 -670 193 l-57 -20 -59 56 c-70 68 -138 109
-263 159 -121 50 -253 86 -404 113 -138 24 -513 35 -650 18z m-637 -879 c36
-22 62 -72 62 -120 0 -82 -83 -237 -217 -405 -143 -179 -232 -228 -319 -175
-46 29 -69 92 -61 170 9 84 54 212 99 281 55 86 182 210 247 242 68 34 141 36
189 7z m2357 -69 c127 -57 276 -364 276 -568 0 -75 -20 -118 -69 -146 -49 -29
-97 -16 -152 41 -91 94 -217 387 -236 547 -6 46 -3 54 22 84 27 33 74 60 104
60 8 0 33 -8 55 -18z m-935 -141 c74 -38 117 -133 140 -309 17 -134 0 -265
-48 -353 -53 -100 -158 -122 -241 -52 -26 22 -76 110 -95 167 -6 17 -8 17 -36
-7 -90 -75 -205 -16 -232 118 -32 161 90 316 203 258 l37 -19 16 58 c18 64 50
103 117 136 55 28 89 29 139 3z m-1041 -81 c28 -26 51 -78 51 -116 0 -23 7
-31 38 -44 48 -20 72 -67 72 -141 0 -127 -67 -238 -144 -238 -33 0 -38 -4 -60
-49 -49 -96 -125 -129 -194 -84 -94 60 -87 340 13 549 46 95 99 144 158 144
30 0 50 -6 66 -21z m1567 -18 c87 -53 153 -342 101 -439 -21 -39 -77 -67 -116
-57 -66 17 -128 124 -157 273 -33 172 -4 241 101 242 22 0 54 -8 71 -19z
m-2096 -1116 c15 -101 57 -212 90 -236 39 -29 107 -37 431 -50 405 -16 1096 0
1639 37 314 22 311 21 332 65 19 38 38 114 63 254 9 50 19 99 22 110 3 11 21
-57 40 -160 56 -297 218 -944 299 -1197 44 -135 58 -153 115 -151 37 2 49 8
78 40 140 158 200 197 301 197 67 0 102 -21 133 -78 32 -60 31 -263 -1 -386
-29 -110 -107 -269 -169 -344 -89 -110 -215 -172 -298 -146 -124 38 -159 18
-175 -100 -73 -539 -533 -1149 -1051 -1394 -227 -108 -411 -149 -664 -150
-315 -2 -553 70 -811 242 -327 220 -543 488 -697 867 -66 163 -112 314 -146
478 -34 166 -42 187 -75 187 -28 0 -36 -16 -36 -72 l0 -41 -67 5 c-92 7 -161
43 -245 129 -122 126 -213 351 -225 559 -6 109 6 170 42 206 19 19 35 24 77
24 83 0 159 -42 271 -149 124 -118 161 -127 198 -50 18 37 34 102 105 424 77
351 175 660 327 1029 l62 149 11 -109 c7 -60 17 -145 24 -189z m1835 -4220
c41 -164 43 -231 20 -505 -45 -507 -129 -804 -276 -963 -176 -192 -310 -122
-494 258 -112 230 -283 678 -310 814 l-7 33 33 -8 c67 -17 209 -8 303 20 214
64 462 234 628 432 35 41 64 71 65 67 2 -5 18 -71 38 -148z m-4466 -2247 c111
-60 267 -167 368 -251 234 -195 514 -538 703 -862 28 -49 59 -98 68 -108 14
-16 14 -19 -4 -38 l-20 -20 -44 63 c-92 132 -285 384 -370 481 -111 129 -359
371 -470 460 -47 38 -146 109 -220 159 -74 50 -137 95 -139 100 -3 9 37 58 47
58 3 0 39 -19 81 -42z m8378 -250 c32 -30 29 -41 -14 -62 -174 -83 -623 -371
-838 -538 -138 -107 -409 -371 -482 -470 l-50 -67 -21 22 -21 22 45 60 c229
305 625 651 1004 875 118 70 328 179 344 180 6 0 20 -10 33 -22z m-1659 -978
c472 -577 770 -985 1005 -1376 79 -132 107 -194 107 -238 0 -37 -10 -45 -155
-132 -232 -137 -534 -355 -657 -473 -57 -54 -78 -69 -78 -55 0 34 -30 366 -46
509 -67 614 -169 1192 -308 1749 -62 249 -63 258 -38 225 15 -18 91 -113 170
-209z m-5267 34 c-147 -631 -242 -1277 -296 -2016 -4 -49 -9 -88 -11 -88 -3 0
-37 22 -77 48 -65 44 -276 171 -612 369 -66 39 -135 87 -154 106 -43 45 -40
70 22 200 139 293 563 871 1042 1422 65 74 120 134 122 132 2 -2 -15 -80 -36
-173z"/>
<path d="M8941 11835 c-18 -9 -86 -55 -150 -103 -352 -268 -520 -347 -666
-312 -47 11 -71 5 -85 -20 -24 -45 44 -99 146 -115 124 -20 372 101 674 330
159 121 201 182 148 219 -27 19 -24 19 -67 1z"/>
<path d="M6743 11802 c-64 -23 -123 -62 -185 -124 -144 -142 -250 -428 -159
-428 26 0 44 24 85 113 88 194 241 337 359 337 105 0 218 -111 332 -325 56
-106 80 -135 111 -135 61 0 63 71 5 182 -164 313 -358 448 -548 380z"/>
<path d="M8032 11058 c-21 -21 -13 -63 20 -114 18 -27 37 -53 43 -57 5 -5 51
-6 100 -4 l90 5 1 -67 c0 -55 6 -80 30 -127 36 -72 71 -99 129 -99 36 0 50 6
79 34 51 50 79 129 74 213 l-4 67 158 -6 c144 -6 160 -4 178 12 38 35 21 96
-32 114 -84 30 -517 21 -693 -14 l-70 -14 -30 35 c-31 36 -53 42 -73 22z"/>
<path d="M6495 11043 c-75 -9 -97 -15 -116 -34 -25 -25 -24 -71 1 -94 18 -16
34 -18 178 -12 l158 6 -4 -67 c-5 -84 23 -163 74 -213 29 -28 43 -34 79 -34
58 0 93 27 129 99 24 47 30 72 30 126 l1 68 95 -5 95 -5 46 41 c49 42 65 82
47 114 -12 23 -55 18 -96 -13 -26 -19 -30 -19 -102 -6 -142 27 -494 44 -615
29z"/>
<path d="M9842 11009 c-97 -48 -253 -278 -269 -397 -9 -71 32 -93 99 -52 49
30 68 26 68 -13 0 -44 -37 -95 -99 -137 -61 -42 -70 -59 -40 -83 28 -22 56
-17 115 24 78 53 124 133 124 215 0 39 -5 51 -34 80 -26 26 -42 34 -70 34 -20
0 -36 3 -36 6 0 25 90 170 132 212 58 59 88 66 107 26 15 -34 45 -28 49 10 5
37 -13 71 -45 85 -34 16 -52 14 -101 -10z"/>
<path d="M5475 10985 c-44 -43 -28 -180 19 -162 11 4 16 18 16 44 0 71 13 74
72 13 59 -60 131 -190 111 -197 -99 -36 -121 -141 -50 -235 38 -50 96 -83 132
-74 14 4 25 11 25 17 0 6 -25 41 -55 77 -69 83 -71 113 -11 123 73 12 85 70
36 174 -64 135 -173 245 -242 245 -17 0 -39 -10 -53 -25z"/>
<path d="M7545 10246 c-59 -59 -97 -320 -58 -396 12 -23 30 -39 55 -48 34 -13
41 -12 90 10 64 30 166 121 185 166 23 55 -14 94 -71 72 -15 -5 -55 -33 -89
-62 l-62 -51 -4 34 c-2 19 2 78 9 132 16 126 16 147 -1 158 -21 13 -28 11 -54
-15z"/>
<path d="M8120 9510 c-130 -22 -242 -51 -357 -91 -186 -65 -384 -191 -428
-271 -19 -36 -19 -37 -1 -57 11 -12 25 -21 31 -21 7 0 52 30 101 66 210 157
522 260 848 280 109 7 130 14 146 44 9 16 6 25 -14 45 -23 23 -31 25 -123 24
-54 0 -145 -9 -203 -19z"/>
<path d="M9214 7349 c-52 -12 -121 -71 -145 -123 -50 -109 6 -250 116 -291 66
-26 153 -17 208 21 49 34 97 119 97 172 0 147 -134 254 -276 221z"/>
<path d="M6354 6999 c-52 -12 -121 -71 -145 -123 -50 -109 6 -250 116 -291 66
-26 153 -17 208 21 49 34 97 119 97 172 0 147 -134 254 -276 221z"/>
<path d="M7544 5239 c-52 -12 -121 -71 -145 -123 -50 -109 6 -250 116 -291 66
-26 153 -17 208 21 49 34 97 119 97 172 0 147 -134 254 -276 221z"/>
<path d="M9764 4819 c-52 -12 -121 -71 -145 -123 -50 -109 6 -250 116 -291 66
-26 153 -17 208 21 49 34 97 119 97 172 0 147 -134 254 -276 221z"/>
<path d="M5894 3339 c-52 -12 -121 -71 -145 -123 -50 -109 6 -250 116 -291 66
-26 153 -17 208 21 49 34 97 119 97 172 0 147 -134 254 -276 221z"/>
<path d="M8624 2799 c-52 -12 -121 -71 -145 -123 -50 -109 6 -250 116 -291 66
-26 153 -17 208 21 49 34 97 119 97 172 0 147 -134 254 -276 221z"/>
</g>
</svg>
