<?xml version="1.0" standalone="no"?>
<!DOCTYPE svg PUBLIC "-//W3C//DTD SVG 20010904//EN"
 "http://www.w3.org/TR/2001/REC-SVG-20010904/DTD/svg10.dtd">
<svg version="1.0" xmlns="http://www.w3.org/2000/svg"
 width="1600.000000pt" height="1600.000000pt" viewBox="0 0 1600.000000 1600.000000"
 preserveAspectRatio="xMidYMid meet">

<g transform="translate(0.000000,1600.000000) scale(0.100000,-0.100000)"
fill="#000000" stroke="none">
<path d="M7735 14533 c-404 -38 -860 -213 -1173 -451 -417 -318 -654 -753
-756 -1392 -48 -297 -60 -432 -60 -702 -1 -306 -3 -300 91 -280 31 6 57 11 58
9 0 -1 11 -42 23 -90 l23 -89 -31 -46 c-53 -80 -65 -138 -65 -307 1 -180 20
-267 95 -420 104 -216 252 -293 406 -215 32 16 60 30 62 30 1 0 2 -11 2 -25 0
-14 14 -83 31 -153 108 -441 272 -744 564 -1038 82 -83 150 -142 215 -184 94
-61 233 -133 281 -145 26 -6 26 -8 33 -127 3 -67 6 -164 6 -217 0 -96 0 -97
-29 -114 -59 -35 -164 -134 -257 -243 -94 -111 -95 -112 -147 -118 -28 -4
-142 -25 -252 -47 -671 -133 -1421 -399 -1809 -641 -347 -217 -662 -566 -874
-968 -170 -322 -411 -957 -567 -1495 -116 -401 -168 -613 -315 -1290 -198
-912 -236 -1132 -280 -1620 -31 -345 -26 -435 25 -435 13 0 28 6 34 13 6 8 27
171 46 363 50 496 74 650 175 1149 133 655 285 1306 400 1710 189 667 474
1392 670 1705 137 221 382 500 555 635 331 258 848 480 1560 670 181 48 558
128 580 123 9 -2 1 -23 -27 -68 -93 -149 -232 -466 -308 -701 -75 -230 -150
-568 -185 -833 -34 -265 -42 -632 -14 -738 19 -72 87 -89 155 -39 21 16 102
89 179 162 215 205 570 508 581 496 7 -6 -13 -324 -36 -573 -22 -232 -89 -842
-204 -1839 -90 -778 -111 -979 -126 -1190 -14 -196 -20 -265 -25 -265 -17 0
-150 58 -250 107 -203 102 -224 102 -329 -7 l-68 -70 -96 56 c-363 213 -666
406 -870 554 l-114 82 6 42 c3 22 17 165 31 316 41 435 72 726 110 1011 41
309 44 399 15 399 -4 0 -19 -27 -34 -61 -61 -142 -132 -631 -191 -1328 -14
-162 -27 -296 -29 -298 -2 -2 -52 33 -112 78 -399 299 -651 401 -996 403 -128
1 -139 0 -159 -21 -30 -30 -27 -69 7 -104 16 -15 137 -85 269 -155 279 -147
350 -192 425 -270 47 -48 51 -56 30 -51 -190 45 -561 57 -735 24 -262 -48
-463 -141 -453 -210 4 -32 43 -27 158 18 216 85 345 108 600 108 204 0 342
-17 500 -60 128 -35 158 -39 165 -21 11 28 -48 109 -163 226 -132 134 -195
177 -476 323 -167 87 -170 89 -126 89 78 0 231 -30 339 -66 180 -60 325 -146
594 -353 76 -58 150 -115 165 -126 282 -207 462 -326 797 -527 132 -79 279
-161 328 -183 48 -21 87 -45 87 -52 0 -26 -40 -127 -64 -164 -14 -21 -28 -48
-31 -61 -5 -20 -39 -38 -198 -108 l-192 -85 -200 1 c-150 0 -221 5 -285 18
-253 52 -499 181 -694 365 -107 100 -177 142 -275 162 -148 30 -351 82 -367
93 -15 12 -11 15 36 26 62 15 209 9 363 -15 101 -15 187 -11 187 9 0 43 -231
89 -455 90 -134 1 -142 0 -197 -27 -61 -30 -76 -54 -64 -102 12 -47 156 -101
433 -164 117 -26 175 -56 238 -121 147 -153 389 -302 608 -375 152 -51 265
-68 467 -69 199 -1 176 -6 430 99 207 86 534 207 710 263 444 141 1165 278
1800 342 280 28 403 30 428 7 31 -28 177 -323 216 -436 20 -58 48 -166 61
-240 32 -177 64 -305 80 -328 27 -37 39 0 43 135 3 102 0 148 -18 232 -33 160
-83 302 -162 462 l-73 147 92 25 c176 49 369 88 458 93 88 5 92 5 123 -22 79
-66 127 -231 188 -640 29 -197 29 -339 1 -407 -12 -29 -24 -39 -63 -53 -76
-26 -191 -85 -210 -106 -27 -30 -5 -42 75 -41 110 0 230 46 275 105 41 54 57
135 54 276 l-2 124 145 83 145 83 49 -14 c71 -22 203 -19 272 5 128 45 220
127 459 407 163 190 208 234 273 268 64 32 95 37 321 45 318 12 369 27 386
115 12 64 -3 86 -87 128 -96 47 -199 67 -342 66 -142 -2 -171 -8 -175 -36 -5
-34 28 -44 167 -53 69 -5 149 -14 176 -20 74 -16 155 -50 155 -66 0 -19 -37
-22 -270 -28 -238 -5 -319 -20 -407 -72 -78 -48 -81 -51 -279 -280 -195 -227
-268 -297 -356 -344 -77 -42 -174 -51 -260 -26 -93 27 -109 23 -250 -59 -71
-41 -133 -75 -137 -75 -5 0 -11 26 -15 58 -13 108 -67 357 -97 442 -16 47 -32
93 -35 102 -4 12 -1 18 9 18 28 0 230 107 332 176 239 160 460 348 694 590
299 308 471 448 661 538 107 51 353 137 363 127 15 -15 -90 -127 -175 -190
-46 -33 -130 -95 -188 -137 -138 -101 -370 -329 -370 -365 0 -63 47 -64 120
-3 70 58 212 142 347 206 154 72 321 125 485 152 175 30 234 44 248 61 23 28
-28 40 -160 40 -143 0 -235 -17 -412 -75 -65 -21 -118 -36 -118 -34 0 2 33 25
73 51 86 55 212 174 238 225 37 72 13 137 -57 154 -72 18 -279 -35 -444 -114
-186 -89 -314 -185 -542 -410 l-177 -174 -6 38 c-4 22 -29 154 -56 294 -28
140 -83 444 -124 675 -41 231 -85 456 -99 500 -33 111 -56 166 -67 159 -5 -3
-9 -61 -9 -128 0 -108 8 -172 65 -492 36 -203 99 -539 141 -748 l76 -379 -44
-44 c-180 -187 -541 -456 -767 -572 l-101 -52 -46 27 c-60 35 -149 42 -269 20
-132 -25 -353 -81 -430 -111 -66 -24 -68 -25 -81 -6 -21 30 -78 51 -138 51
l-56 0 0 38 c0 21 -13 119 -30 218 -76 465 -103 750 -135 1409 -26 546 -38
1043 -32 1325 5 233 19 425 31 438 6 5 178 -74 385 -177 218 -110 469 -224
513 -235 41 -10 92 16 110 55 57 121 8 609 -108 1074 -93 370 -263 851 -415
1173 -52 110 -55 122 -36 117 12 -3 90 -19 172 -35 506 -103 1055 -281 1403
-455 424 -213 753 -510 985 -890 165 -272 390 -790 598 -1380 203 -572 491
-1673 613 -2340 48 -261 68 -401 121 -830 64 -512 73 -554 113 -529 33 21 36
74 18 282 -68 772 -156 1269 -381 2172 -186 743 -342 1239 -570 1815 -312 786
-539 1144 -935 1477 -426 358 -1160 646 -2095 823 l-140 27 -34 56 c-96 158
-250 323 -336 358 l-45 19 0 60 c0 33 3 123 6 200 l7 141 87 41 c189 90 352
221 469 377 161 214 268 430 355 717 36 121 80 297 91 364 11 67 12 68 42 48
44 -29 135 -24 207 11 121 59 258 219 324 378 42 101 56 182 50 289 -5 78 -11
100 -42 163 -22 45 -53 90 -81 115 l-45 42 12 64 c11 61 13 65 38 65 85 0 103
112 80 490 -33 517 -126 946 -274 1254 -169 352 -475 629 -791 717 -160 44
-339 45 -439 0 l-42 -18 -52 48 c-150 138 -393 241 -649 274 -103 14 -324 18
-428 8z m1110 -1525 c35 -106 102 -386 140 -580 21 -106 46 -149 105 -183 65
-37 533 -267 613 -301 l67 -28 1 -196 c1 -107 3 -242 4 -300 4 -134 -11 -466
-25 -556 -28 -182 -36 -228 -67 -369 -118 -536 -363 -969 -656 -1159 -271
-177 -591 -267 -942 -267 -432 0 -726 113 -995 381 -177 177 -313 379 -408
610 -38 92 -104 293 -116 355 -3 17 -14 73 -25 125 -10 52 -22 124 -27 160 -4
36 -8 72 -9 80 -22 158 -29 326 -30 682 0 223 3 409 6 412 3 4 190 53 415 110
695 177 1049 280 1090 318 21 18 22 29 23 201 2 297 24 596 45 598 63 8 298
16 503 17 l252 2 36 -112z m1328 -1449 c82 -22 157 -129 172 -244 25 -194
-134 -490 -308 -574 -56 -27 -96 -27 -138 2 -38 26 -38 20 -20 184 6 62 14
185 17 275 5 143 8 167 27 198 35 58 109 132 152 151 47 22 49 22 98 8z
m-3919 -93 c60 -46 85 -109 91 -228 12 -253 20 -376 31 -440 4 -29 1 -46 -16
-72 -114 -186 -291 -58 -376 269 -22 86 -25 117 -22 220 3 110 5 125 33 180
42 83 80 108 161 103 48 -3 70 -10 98 -32z m2441 -3086 c9 -162 18 -446 19
-630 2 -351 5 -380 46 -380 26 0 26 2 56 136 38 172 43 407 15 788 -12 159
-18 292 -15 295 18 17 213 -227 301 -377 229 -389 503 -1155 607 -1697 67
-352 94 -705 53 -705 -15 0 -287 127 -477 223 -289 146 -392 189 -447 185 -41
-3 -50 -7 -70 -36 -12 -18 -25 -58 -29 -90 -6 -51 -12 -62 -63 -115 -93 -98
-207 -165 -367 -213 -81 -25 -104 -28 -249 -28 -141 -1 -169 2 -235 22 -111
35 -165 68 -237 147 l-65 70 6 50 c3 27 8 138 12 245 6 212 2 231 -47 259 -23
13 -30 12 -70 -7 -75 -37 -414 -322 -673 -566 l-139 -131 6 250 c6 260 19 381
63 625 108 596 317 1124 587 1485 78 105 247 299 253 292 3 -2 -1 -178 -7
-392 -11 -384 -4 -622 21 -730 5 -22 10 -56 10 -75 0 -45 44 -140 64 -140 9 0
19 12 23 28 10 35 10 212 0 432 l-8 176 58 18 c281 88 641 395 881 754 33 48
67 103 78 122 10 21 19 29 21 20 1 -8 9 -148 18 -310z m-1936 -5860 c79 -38
179 -82 222 -97 107 -38 104 -51 -19 -86 -53 -16 -171 -55 -262 -88 -90 -32
-165 -57 -167 -55 -2 2 6 24 17 49 30 67 46 199 33 275 -9 61 -7 69 23 71 6 1
75 -30 153 -69z"/>
<path d="M7410 12020 c-304 -62 -368 -79 -442 -116 -91 -46 -115 -118 -59
-175 25 -25 37 -29 83 -29 29 0 85 7 123 16 39 8 189 39 335 68 146 30 284 61
308 71 58 24 92 66 92 116 0 51 -13 75 -50 94 -43 22 -78 18 -390 -45z"/>
<path d="M8490 12063 c-49 -25 -75 -81 -61 -126 15 -44 46 -73 99 -91 72 -26
613 -138 688 -143 85 -6 127 11 151 61 35 74 -12 132 -139 171 -135 41 -542
129 -651 141 -39 4 -61 1 -87 -13z"/>
<path d="M8695 11676 c-97 -45 -182 -166 -220 -311 -19 -73 -19 -125 -1 -150
12 -16 25 -18 105 -16 l91 2 0 -63 c0 -84 15 -133 53 -175 64 -69 156 -52 207
39 20 35 25 57 25 115 l0 73 60 0 c33 0 89 -5 124 -10 73 -12 111 3 111 44 0
60 -69 74 -427 83 l-253 6 7 26 c10 42 52 133 79 173 14 20 52 56 85 79 67 49
78 82 33 99 -31 12 -20 14 -79 -14z"/>
<path d="M7383 11680 c-42 -17 -29 -51 36 -99 33 -23 71 -59 85 -79 27 -40 69
-131 79 -173 l7 -26 -253 -6 c-358 -9 -427 -23 -427 -83 0 -41 38 -56 111 -44
35 5 91 10 124 10 l60 0 0 -73 c0 -58 5 -80 25 -115 51 -91 143 -108 207 -39
38 42 53 91 53 175 l0 63 91 -2 c80 -2 93 0 105 16 28 38 8 156 -46 272 -58
126 -190 229 -257 203z"/>
<path d="M7997 10732 c-29 -31 -59 -113 -64 -173 -11 -112 40 -189 123 -189
58 0 90 16 105 53 11 27 10 32 -11 49 -16 13 -36 18 -59 16 -34 -3 -37 -1 -45
33 -6 25 -4 62 6 117 8 49 11 87 6 97 -12 20 -41 19 -61 -3z"/>
<path d="M8009 9754 c-98 -17 -179 -48 -213 -79 -23 -21 -25 -28 -16 -46 14
-24 36 -23 165 7 113 27 377 27 452 1 56 -20 88 -16 102 11 22 43 -37 87 -147
111 -71 15 -249 13 -343 -5z"/>
<path d="M10133 11450 c-43 -18 -114 -100 -149 -174 -26 -54 -38 -97 -46 -162
-12 -101 -3 -144 32 -144 25 0 32 17 54 129 17 82 57 175 93 216 10 11 37 35
61 53 45 36 54 65 23 82 -23 12 -38 12 -68 0z"/>
<path d="M6027 11375 c-9 -9 -17 -20 -17 -24 0 -13 24 -31 42 -31 30 0 67 -30
94 -76 32 -54 42 -89 54 -192 12 -94 35 -162 56 -162 8 0 20 23 29 54 14 46
14 68 5 138 -20 142 -56 221 -126 274 -44 34 -113 43 -137 19z"/>
<path d="M12235 3505 c-170 -28 -353 -92 -507 -178 -117 -65 -151 -104 -110
-126 14 -7 40 -1 103 25 46 19 122 51 169 70 122 50 286 92 430 109 149 18
255 42 271 61 35 42 -187 66 -356 39z"/>
<path d="M4236 2909 c-195 -21 -386 -72 -426 -114 -20 -22 -22 -28 -11 -51 10
-22 16 -25 39 -19 15 4 50 11 77 15 28 5 82 16 120 25 179 42 479 57 692 35
51 -5 99 -7 107 -4 23 9 28 35 11 54 -48 53 -369 84 -609 59z"/>
</g>
</svg>
