<?xml version="1.0" standalone="no"?>
<!DOCTYPE svg PUBLIC "-//W3C//DTD SVG 20010904//EN"
 "http://www.w3.org/TR/2001/REC-SVG-20010904/DTD/svg10.dtd">
<svg version="1.0" xmlns="http://www.w3.org/2000/svg"
 width="1600.000000pt" height="1600.000000pt" viewBox="0 0 1600.000000 1600.000000"
 preserveAspectRatio="xMidYMid meet">

<g transform="translate(0.000000,1600.000000) scale(0.100000,-0.100000)"
fill="#000000" stroke="none">
<path d="M8885 14824 c-98 -52 -167 -129 -235 -264 -62 -124 -90 -228 -104
-385 -7 -77 -16 -139 -22 -138 -202 33 -754 38 -999 9 -559 -65 -1092 -237
-1494 -480 -410 -249 -731 -537 -943 -846 -228 -333 -362 -665 -458 -1141 -42
-208 -65 -397 -95 -789 -42 -549 -66 -672 -175 -877 -67 -128 -145 -234 -262
-357 -137 -145 -250 -241 -593 -501 -335 -255 -431 -334 -556 -458 -198 -196
-373 -458 -468 -699 -37 -94 -86 -276 -101 -378 -14 -97 -14 -415 0 -522 51
-377 201 -793 388 -1077 234 -355 627 -693 932 -801 36 -13 66 -24 67 -25 2
-1 -13 -48 -32 -106 -288 -850 -451 -1908 -416 -2709 6 -124 14 -238 19 -254
10 -35 27 -44 36 -20 8 20 29 258 51 574 42 608 64 818 119 1155 98 593 277
1216 503 1745 117 274 290 617 397 784 l35 55 53 -50 c102 -98 240 -143 370
-121 113 20 191 62 283 156 134 135 198 295 198 491 0 119 -19 200 -71 307
l-37 77 71 40 c60 34 191 91 210 91 3 0 17 -25 31 -56 24 -53 25 -64 25 -232
-1 -464 -97 -904 -376 -1727 -69 -206 -251 -699 -263 -714 -2 -3 -19 3 -38 12
-96 46 -164 2 -271 -173 -226 -368 -592 -1256 -753 -1827 -71 -252 -101 -384
-101 -443 0 -93 24 -62 98 128 94 237 211 545 253 662 l34 95 80 12 c209 32
310 -46 308 -237 -1 -125 -60 -202 -221 -285 -88 -45 -99 -54 -120 -97 -30
-60 -23 -114 20 -163 60 -69 150 -71 282 -5 177 87 296 229 341 405 19 75 19
221 0 304 -57 242 -266 398 -502 377 -40 -4 -73 -5 -73 -2 0 8 169 414 230
551 75 169 195 408 247 490 l37 59 18 -76 c22 -97 70 -192 147 -295 187 -248
471 -431 906 -583 220 -76 302 -118 361 -183 96 -105 102 -154 112 -854 4
-287 11 -526 16 -530 21 -22 47 88 83 355 24 174 27 231 27 492 1 316 -1 335
-55 510 -31 102 -99 223 -171 305 -53 60 -209 190 -260 216 -44 23 -43 13 -26
210 l11 138 26 -14 c82 -42 283 -59 362 -31 90 32 166 127 156 193 -8 46 -29
69 -101 105 -47 24 -80 32 -152 38 -50 4 -108 16 -128 25 -109 52 -145 186
-86 322 39 92 132 155 264 177 87 16 111 28 131 66 32 61 11 137 -50 187 -59
49 -162 66 -260 43 -22 -5 -41 -7 -43 -6 -5 6 48 307 69 389 32 128 74 231
147 366 95 174 151 311 190 461 l9 35 6 -35 c4 -19 16 -91 27 -160 41 -248
121 -531 204 -720 181 -413 497 -734 826 -842 125 -40 304 -50 426 -23 333 73
625 386 817 875 166 422 300 1086 337 1660 13 212 14 216 41 223 20 5 21 3 15
-31 -31 -190 -32 -497 -1 -682 40 -239 99 -406 227 -641 131 -241 171 -398
242 -934 46 -348 98 -901 89 -949 -3 -14 -32 -56 -65 -93 -142 -160 -353 -450
-416 -571 l-42 -80 0 -160 c0 -225 66 -872 120 -1177 20 -114 59 -241 85 -282
20 -30 51 -30 59 0 11 41 6 216 -9 315 -57 380 -140 1148 -127 1180 2 7 28 24
56 36 97 43 521 289 731 424 260 168 539 383 634 488 29 33 71 87 94 122 l42
63 24 -53 c52 -119 198 -546 285 -834 6 -18 0 -25 -38 -44 -82 -39 -148 -134
-180 -257 -21 -79 -21 -243 0 -336 23 -107 94 -245 157 -309 98 -101 215 -148
306 -124 47 12 50 12 54 -8 106 -489 164 -713 192 -736 62 -52 60 153 -5 463
-166 794 -541 2038 -712 2359 -61 115 -126 169 -220 183 l-47 7 -50 127 c-63
163 -105 281 -100 284 2 1 33 17 69 34 126 63 251 189 306 308 99 214 59 431
-112 601 -142 143 -334 200 -528 159 -38 -8 -71 -13 -73 -12 -8 9 -54 239 -72
362 -38 261 -45 645 -13 677 15 15 88 -35 206 -137 348 -305 678 -819 991
-1545 426 -990 634 -1932 725 -3295 18 -266 37 -365 70 -365 10 0 21 8 25 18
14 32 17 330 6 514 -53 825 -150 1439 -338 2123 -20 74 -31 131 -25 133 24 8
127 75 214 139 535 397 1130 1115 1396 1683 200 429 254 838 156 1179 -94 323
-355 607 -742 804 -146 75 -297 137 -624 256 -548 200 -745 302 -927 475 -120
116 -184 224 -252 426 -70 209 -94 404 -109 880 -30 948 -34 1031 -71 1285
-88 618 -291 1007 -687 1323 -107 85 -243 175 -300 199 -20 8 -38 16 -40 18
-2 2 32 37 75 79 100 94 135 156 136 236 0 72 -22 114 -86 157 -120 81 -347
83 -590 7 -43 -14 -81 -24 -83 -21 -2 2 -9 82 -14 178 -26 430 -83 643 -189
711 -62 39 -156 40 -226 2z m279 -2606 c43 -150 161 -489 217 -620 126 -296
272 -542 441 -741 46 -54 96 -116 112 -137 l28 -38 0 -278 c-1 -154 1 -294 5
-312 6 -38 42 -67 72 -57 12 4 33 33 52 73 38 81 79 141 139 206 45 49 126 96
167 96 29 0 89 -53 112 -99 43 -85 56 -280 27 -417 -50 -243 -223 -476 -351
-476 -48 0 -64 12 -140 106 -79 96 -108 109 -128 56 -10 -26 -16 -30 -48 -30
-21 0 -44 -7 -52 -15 -19 -19 -37 -101 -37 -169 0 -30 -3 -68 -6 -85 -6 -30
-10 -25 -55 78 -65 149 -137 261 -166 261 -19 0 -23 -6 -23 -28 0 -36 36 -139
94 -272 125 -281 202 -548 246 -843 16 -109 23 -135 41 -149 26 -22 30 -22 54
-4 18 13 19 20 7 139 -8 79 -31 199 -63 328 l-50 204 0 206 c0 113 3 214 7
224 21 53 115 -347 163 -690 45 -318 58 -744 37 -1143 -25 -461 -20 -652 25
-947 62 -409 287 -1155 548 -1812 72 -182 131 -337 131 -345 0 -24 -194 -205
-330 -307 -111 -83 -372 -260 -472 -320 l-37 -22 -5 33 c-3 18 -15 168 -26
333 -62 886 -152 1510 -255 1770 -15 35 -62 131 -106 212 -118 220 -173 374
-208 583 -45 266 -38 473 30 855 36 204 41 243 37 345 -4 108 -8 125 -60 275
-50 145 -86 290 -74 302 5 6 83 -104 131 -187 21 -36 64 -121 95 -189 61 -135
79 -156 107 -129 14 15 15 23 4 73 -24 106 -92 252 -177 381 -69 105 -123 154
-167 154 -96 0 -102 -142 -16 -406 21 -66 39 -128 39 -138 0 -27 -56 -91 -160
-183 -463 -411 -1147 -568 -1740 -398 -276 79 -562 235 -787 429 -37 32 -71
64 -75 71 -4 7 6 52 22 101 62 183 76 338 35 384 -30 33 -78 26 -125 -16 -106
-96 -260 -395 -277 -536 -5 -39 -3 -49 11 -54 27 -10 50 20 105 144 28 62 69
145 92 185 51 87 129 200 135 194 12 -12 -24 -157 -74 -302 -52 -150 -56 -167
-60 -275 -4 -102 1 -141 37 -345 68 -382 75 -589 30 -855 -35 -209 -90 -363
-208 -583 -44 -81 -91 -177 -106 -212 -104 -261 -194 -889 -255 -1775 -27
-402 -30 -430 -41 -430 -17 0 -241 103 -324 148 -44 24 -109 65 -145 90 -130
93 -310 284 -362 385 -25 50 -35 16 134 442 193 483 398 1120 492 1525 43 186
71 366 87 555 13 157 7 619 -12 905 -19 290 -17 868 4 1035 24 192 88 497 102
483 2 -2 -1 -93 -5 -203 -9 -197 -4 -292 21 -389 9 -37 8 -66 -5 -149 -22
-143 -36 -293 -36 -402 0 -112 7 -152 28 -160 35 -13 44 26 77 315 40 357 115
634 260 970 74 169 86 218 62 239 -38 31 -87 -37 -173 -239 -32 -74 -76 -191
-99 -259 l-42 -124 5 245 c5 276 2 299 -56 345 -67 53 -78 51 -155 -28 -117
-120 -156 -121 -273 -4 -142 140 -226 392 -226 670 1 295 109 386 269 226 52
-51 114 -143 163 -240 67 -133 161 -176 204 -92 26 50 35 151 46 546 l11 380
32 28 c160 140 777 480 1252 690 400 177 910 361 1549 559 127 39 271 88 320
108 50 21 94 36 97 34 3 -1 14 -31 23 -66z m-3599 -4438 c21 -31 26 -52 35
-169 5 -74 8 -136 6 -138 -7 -8 -157 413 -156 436 1 8 85 -87 115 -129z m3225
-662 c-11 -62 -41 -201 -66 -308 -215 -938 -443 -1449 -698 -1566 -158 -72
-361 -24 -519 125 -156 147 -273 353 -377 669 -33 100 -60 184 -60 187 0 3 19
-4 42 -16 210 -107 662 43 1038 346 197 158 394 358 574 581 44 56 83 100 84
98 2 -1 -6 -53 -18 -116z m-3763 -205 c13 -34 18 -75 18 -138 0 -78 -4 -98
-28 -150 -44 -93 -126 -165 -189 -165 -35 0 -120 44 -152 78 l-29 31 59 78
c60 79 280 313 295 313 4 0 16 -21 26 -47z m5493 -883 c142 -39 222 -174 175
-295 -20 -55 -96 -135 -153 -164 l-42 -22 -11 28 c-17 45 -139 442 -139 453 0
13 124 13 170 0z m875 -2885 c25 -93 53 -192 60 -220 8 -27 12 -51 10 -53 -12
-12 -55 32 -82 84 -38 74 -56 149 -57 239 -1 63 10 133 18 124 2 -2 25 -80 51
-174z"/>
<path d="M8527 11549 c-79 -18 -152 -62 -223 -133 -79 -79 -126 -159 -149
-258 -18 -79 -18 -83 1 -103 22 -22 37 -8 75 71 16 35 55 91 85 123 163 177
363 208 572 89 105 -60 147 -107 239 -263 96 -163 111 -185 123 -185 37 0 -24
207 -98 330 -135 223 -314 341 -517 339 -38 -1 -87 -5 -108 -10z"/>
<path d="M6940 11429 c-30 -5 -93 -28 -140 -51 -72 -35 -101 -57 -185 -142
-111 -113 -180 -218 -221 -335 -30 -85 -29 -125 3 -129 18 -3 29 11 65 80 155
299 398 472 614 438 113 -18 168 -63 265 -215 71 -110 93 -132 105 -101 9 23
-16 126 -44 184 -34 70 -106 158 -167 204 -81 61 -186 85 -295 67z"/>
<path d="M8467 10676 c-52 -19 -83 -50 -112 -111 -84 -179 -29 -423 110 -486
71 -33 127 -20 179 41 62 75 80 269 37 409 -40 131 -116 183 -214 147z"/>
<path d="M7047 10636 c-52 -19 -83 -50 -112 -111 -84 -179 -29 -423 110 -486
71 -33 127 -20 179 41 62 75 80 269 37 409 -40 131 -116 183 -214 147z"/>
<path d="M10324 10261 c-18 -11 -43 -35 -58 -53 -54 -72 -134 -287 -121 -328
10 -33 40 -43 74 -25 43 21 78 19 86 -5 9 -27 -29 -104 -61 -125 -36 -23 -131
-55 -166 -55 -34 0 -36 -13 -6 -34 31 -22 123 -20 173 3 76 34 135 123 135
202 0 54 -51 109 -100 109 -30 0 -32 2 -26 28 4 15 23 62 43 105 43 91 83 132
122 123 50 -12 56 -11 59 10 8 54 -92 83 -154 45z"/>
<path d="M5302 10205 c-26 -19 -57 -115 -48 -151 11 -42 43 -31 56 19 19 74
21 77 40 77 29 0 88 -77 136 -175 64 -134 64 -135 15 -135 -31 0 -49 -7 -73
-29 -30 -26 -33 -35 -32 -83 1 -82 44 -152 116 -189 42 -22 88 -25 106 -7 18
18 14 28 -11 28 -51 0 -147 116 -147 178 0 27 15 36 75 42 91 9 94 63 12 230
-53 107 -147 210 -193 210 -16 0 -39 -7 -52 -15z"/>
<path d="M9191 9907 c-18 -23 14 -50 137 -114 103 -55 149 -65 176 -37 39 38
-1 82 -114 124 -103 39 -180 49 -199 27z"/>
<path d="M9052 9888 c-21 -21 -13 -42 36 -102 53 -64 83 -85 123 -86 58 0 40
70 -33 132 -79 67 -104 78 -126 56z"/>
<path d="M7686 9861 c-56 -62 -73 -213 -33 -291 26 -52 83 -90 137 -90 62 0
128 57 113 98 -3 7 -25 12 -60 12 -44 0 -58 5 -78 25 -21 20 -25 34 -25 83 0
32 6 79 14 104 15 53 6 78 -28 78 -13 0 -31 -8 -40 -19z"/>
<path d="M6335 9846 c-111 -43 -164 -74 -171 -101 -18 -71 32 -72 166 -5 119
60 145 82 130 110 -14 26 -49 25 -125 -4z"/>
<path d="M6464 9787 c-65 -48 -124 -110 -124 -131 0 -17 32 -46 51 -46 20 1
46 24 123 108 73 82 83 112 37 112 -18 0 -50 -16 -87 -43z"/>
<path d="M8002 9180 c-219 -16 -380 -56 -549 -136 -120 -56 -207 -125 -237
-188 -8 -17 -18 -72 -21 -121 -16 -208 87 -481 242 -645 79 -84 135 -122 219
-150 105 -35 259 -29 325 13 l34 22 -100 6 c-197 12 -265 76 -253 237 9 123
109 247 259 321 120 58 191 74 318 69 126 -4 179 -25 230 -90 33 -42 33 -44
27 -121 -6 -92 2 -96 51 -24 58 86 93 242 93 412 0 158 -72 300 -178 354 -80
40 -257 56 -460 41z"/>
<path d="M9284 9156 c-6 -15 68 -168 170 -350 101 -180 172 -338 227 -506 24
-76 30 -85 54 -88 32 -4 55 13 55 42 0 29 -51 186 -95 292 -86 208 -189 389
-299 528 -74 92 -101 112 -112 82z"/>
<path d="M6384 8954 c-84 -106 -139 -194 -214 -344 -118 -234 -199 -478 -202
-605 -2 -56 5 -75 27 -75 23 0 41 38 75 155 58 201 141 396 255 600 103 183
177 336 171 351 -11 30 -38 10 -112 -82z"/>
<path d="M8245 3181 c-233 -38 -392 -170 -467 -387 -100 -289 20 -654 215
-654 46 0 93 39 107 90 8 28 6 57 -5 116 -20 102 -20 235 0 301 21 72 70 133
130 163 99 49 241 23 324 -61 44 -45 95 -154 116 -254 22 -98 43 -143 89 -183
66 -58 157 -52 216 14 41 47 50 73 50 143 0 168 -125 447 -246 549 -150 126
-358 190 -529 163z"/>
</g>
</svg>
